<?xml version="1.0" encoding="utf-8"?>
<!-- Generator: Adobe Illustrator 22.1.0, SVG Export Plug-In . SVG Version: 6.00 Build 0)  -->
<svg version="1.1" id="Слой_1" xmlns="http://www.w3.org/2000/svg" xmlns:xlink="http://www.w3.org/1999/xlink" x="0px" y="0px"
	 viewBox="0 0 50 50" style="enable-background:new 0 0 50 50;" xml:space="preserve">
<style type="text/css">
	.st0{fill:#2182EE;fill-opacity:0;}
	.st1{fill:#1196FF;}
</style>
<path class="st0" d="M0,0h50v50H0V0z"/>
<path class="st1" d="M33,21.9c-0.5,0-0.8-0.3-0.8-0.8v-0.4c0-0.5,0.3-0.8,0.8-0.8s0.8,0.3,0.8,0.8v0.4C33.8,21.6,33.5,21.9,33,21.9z
	 M33,26.4c0.5,0,0.8,0.3,0.8,0.8v0.4c0,0.5-0.3,0.8-0.8,0.8s-0.8-0.3-0.8-0.8v-0.4C32.2,26.7,32.5,26.4,33,26.4z M32.2,24.6v-0.8
	c0-0.5,0.3-0.8,0.8-0.8s0.8,0.3,0.8,0.8v0.8c0,0.4-0.3,0.8-0.8,0.8S32.2,25,32.2,24.6L32.2,24.6z M29.2,20.8c0-0.5,0.3-0.8,0.8-0.8
	s0.8,0.3,0.8,0.8v0.4c0,0.5-0.3,0.8-0.8,0.8s-0.8-0.3-0.8-0.8V20.8z M30,26.4c0.5,0,0.8,0.3,0.8,0.8v0.4c0,0.5-0.3,0.8-0.8,0.8
	s-0.8-0.3-0.8-0.8v-0.4C29.2,26.7,29.5,26.4,30,26.4z M29.2,23.8c0-0.5,0.3-0.8,0.8-0.8s0.8,0.3,0.8,0.8v0.8c0,0.4-0.3,0.8-0.8,0.8
	s-0.8-0.3-0.8-0.8V23.8z M26.2,20.8c0-0.5,0.3-0.8,0.8-0.8s0.8,0.3,0.8,0.8v0.4c0,0.5-0.3,0.8-0.8,0.8s-0.8-0.3-0.8-0.8V20.8z
	 M27,26.4c0.5,0,0.8,0.3,0.8,0.8v0.4c0,0.5-0.3,0.8-0.8,0.8s-0.8-0.3-0.8-0.8v-0.4C26.2,26.7,26.5,26.4,27,26.4z M26.2,23.8
	c0-0.5,0.3-0.8,0.8-0.8s0.8,0.3,0.8,0.8v0.8c0,0.4-0.3,0.8-0.8,0.8s-0.8-0.3-0.8-0.8V23.8z M42.8,35h-0.9l-2,8.1
	c-0.6,2.2-2.6,3.8-4.9,3.9l0.9,1.9c0.2,0.4,0,0.8-0.3,1C35.5,50,35.4,50,35.2,50c-0.3,0-0.5-0.2-0.7-0.5L33.3,47H12.5l-1.3,2.6
	C11,49.8,10.8,50,10.5,50c-0.1,0-0.2,0-0.3-0.1c-0.4-0.1-0.5-0.6-0.3-1l1-2h-0.6c-2.4,0-4.5-1.7-5.1-4l-2-8H2.2C1,35,0,34,0,32.8
	c0-1.3,1-2.2,2.2-2.2h0.1c0.3-1.7,1.8-3,3.7-3c0.7,0,1.3,0.2,1.9,0.5c0.6-1.2,1.9-2,3.3-2c1.2,0,2.2,0.6,3,1.5c1.8,0,3.3,1.3,3.7,3
	h22.6V14.8c0-2.9-2.3-5.2-5.2-5.2c-2.8,0-4.2,2.2-4.5,4.6c1.7,0.4,3,1.8,3,3.7c0,0.5-0.3,0.8-0.8,0.8h-6c-0.5,0-0.8-0.3-0.8-0.8
	c0-1.9,1.3-3.4,3-3.7c0.3-3.6,2.7-6.1,6-6.1C39,8,42,11,42,14.8v15.8h0.8c1.3,0,2.2,1,2.2,2.2C45,34,44,35,42.8,35z M27.9,17h4.3
	c-0.3-0.9-1.1-1.5-2.1-1.5C29.1,15.5,28.2,16.1,27.9,17z M6.7,42.7c0.4,1.6,1.9,2.8,3.7,2.8h24.4c1.7,0,3.2-1.2,3.7-2.8l1.8-7.7H4.7
	L6.7,42.7z M14.3,29c-0.1,0-0.1,0-0.2,0c-0.3,0.1-0.7-0.1-0.8-0.4c-0.4-0.8-1.1-1.1-1.9-1.1c-1.1,0-2,0.8-2.2,2
	C9,29.8,8.9,30,8.6,30c-0.3,0.1-0.6,0-0.8-0.2C7.3,29.3,6.7,29,6,29c-1,0-1.8,0.6-2.1,1.5h12.5C16.1,29.6,15.3,29,14.3,29z M42.8,32
	H17.2H3H2.2c-0.5,0-0.8,0.3-0.8,0.8s0.3,0.8,0.8,0.8h1.5h37.5h1.5c0.5,0,0.8-0.3,0.8-0.8S43.2,32,42.8,32z"/>
</svg>
