<svg 
 xmlns="http://www.w3.org/2000/svg"
 xmlns:xlink="http://www.w3.org/1999/xlink"
 width="41px" height="28px">
<path fill-rule="evenodd"  fill="rgb(144, 150, 158)"
 d="M37.010,10.854 L37.010,10.810 L37.010,4.120 C37.010,1.108 34.905,0.000 32.932,0.000 L7.937,0.000 C5.964,0.000 3.859,1.063 3.859,4.120 L3.859,10.810 L3.859,10.854 C1.886,11.076 0.000,12.405 0.000,15.462 L0.000,20.690 C0.000,21.576 0.702,22.285 1.579,22.285 L2.105,22.285 L2.105,26.405 C2.105,27.291 2.806,28.000 3.683,28.000 L5.174,28.000 C6.051,28.000 6.753,27.291 6.753,26.405 L6.753,22.240 L34.247,22.240 L34.247,26.405 C34.247,27.291 34.949,28.000 35.826,28.000 L37.317,28.000 C38.194,28.000 38.895,27.291 38.895,26.405 L38.895,22.240 L39.421,22.240 C40.298,22.240 41.000,21.532 41.000,20.646 L41.000,15.462 C40.868,12.405 38.983,11.076 37.010,10.854 ZM5.350,4.120 L5.437,4.120 C5.437,2.038 6.797,1.595 7.937,1.595 L32.932,1.595 C34.072,1.595 35.431,2.038 35.431,4.120 L35.431,10.810 L34.247,10.810 L34.247,7.000 C34.247,6.114 33.545,5.405 32.668,5.405 L23.021,5.405 C22.144,5.405 21.443,6.114 21.443,7.000 L21.443,10.810 L19.601,10.810 L19.601,7.000 C19.601,6.114 18.899,5.405 18.022,5.405 L8.375,5.405 C7.498,5.405 6.797,6.114 6.797,7.000 L6.797,10.810 L5.350,10.810 L5.350,4.120 ZM32.668,7.000 L32.668,10.810 L23.021,10.810 L23.021,7.000 L32.668,7.000 ZM18.110,7.000 L18.110,10.810 L8.463,10.810 L8.463,7.000 L18.110,7.000 ZM5.130,26.405 L3.640,26.405 L3.640,22.240 L5.130,22.240 L5.130,26.405 ZM37.229,26.405 L35.738,26.405 L35.738,22.240 L37.229,22.240 L37.229,26.405 ZM39.290,20.690 L37.229,20.690 L35.738,20.690 L5.130,20.690 L3.640,20.690 L1.535,20.690 L1.535,18.342 L39.290,18.342 L39.290,20.690 ZM39.290,16.747 L1.535,16.747 L1.535,15.462 C1.535,12.804 3.464,12.405 4.560,12.405 L5.394,12.405 L8.419,12.405 L18.066,12.405 L23.021,12.405 L32.668,12.405 L35.431,12.405 L36.264,12.405 C37.404,12.405 39.290,12.804 39.290,15.462 L39.290,16.747 L39.290,16.747 Z"/>
</svg>