<svg id="Слой_1" data-name="Слой 1" xmlns="http://www.w3.org/2000/svg" viewBox="0 0 50 50"><defs><style>.cls-1{fill:#2182ee;fill-opacity:0;}.cls-2{fill:#11a2f6;}</style></defs><title>bed</title><path class="cls-1" d="M0,0H50V50H0Z"/><path class="cls-2" d="M45.13,29.18V21a4.64,4.64,0,0,0-5-5H9.68c-2.41,0-5,1.29-5,5v8.18C2.3,29.45,0,31.06,0,34.78v6.34a1.92,1.92,0,0,0,1.92,1.94h.65v5A1.92,1.92,0,0,0,4.49,50H6.31a1.92,1.92,0,0,0,1.92-1.94V43H41.76v5.05A1.93,1.93,0,0,0,43.69,50h1.82a1.92,1.92,0,0,0,1.92-1.94V43h.65A1.92,1.92,0,0,0,50,41.07V34.78C49.84,31.06,47.54,29.45,45.13,29.18ZM6.52,21h.11a2.74,2.74,0,0,1,3.05-3.06H40.16A2.74,2.74,0,0,1,43.21,21v8.13H41.76V24.5a1.92,1.92,0,0,0-1.92-1.94H28.08a1.92,1.92,0,0,0-1.93,1.94v4.63H23.9V24.5A1.92,1.92,0,0,0,22,22.56H10.21A1.92,1.92,0,0,0,8.29,24.5v4.63H6.52Zm33.32,3.5v4.63H28.08V24.5Zm-17.76,0v4.63H10.32V24.5ZM6.26,48.06H4.44V43H6.26Zm39.14,0H43.58V43H45.4Zm2.51-6.94h-46V38.27h46Zm0-4.79h-46V34.78a3.37,3.37,0,0,1,3.69-3.72H44.22c1.4,0,3.69.49,3.69,3.72v1.55Z"/></svg>