<svg 
 xmlns="http://www.w3.org/2000/svg"
 xmlns:xlink="http://www.w3.org/1999/xlink"
 width="1471px" height="645px">
<defs>
<linearGradient id="PSgrad_0" x1="0%" x2="0%" y1="100%" y2="0%">
  <stop offset="53%" stop-color="rgb(255,255,255)" stop-opacity="1" />
  <stop offset="89%" stop-color="rgb(240,251,255)" stop-opacity="1" />
  <stop offset="100%" stop-color="rgb(225,246,255)" stop-opacity="1" />
</linearGradient>

</defs>
<path fill-rule="evenodd"  fill="rgb(255, 255, 255)"
 d="M104.117,0.688 C104.117,0.688 208.982,157.644 389.524,79.165 C570.067,0.685 597.103,-15.356 738.709,23.759 C880.315,62.874 849.191,187.824 1077.728,133.570 C1306.265,79.317 1453.750,343.987 1469.904,408.379 C1486.058,472.772 1028.426,644.794 1028.426,644.794 C1028.426,644.794 14.864,378.428 1.779,372.875 C-11.305,367.322 104.117,0.688 104.117,0.688 Z"/>
<path fill="url(#PSgrad_0)"
 d="M104.117,0.688 C104.117,0.688 208.982,157.644 389.524,79.165 C570.067,0.685 597.103,-15.356 738.709,23.759 C880.315,62.874 849.191,187.824 1077.728,133.570 C1306.265,79.317 1453.750,343.987 1469.904,408.379 C1486.058,472.772 1028.426,644.794 1028.426,644.794 C1028.426,644.794 14.864,378.428 1.779,372.875 C-11.305,367.322 104.117,0.688 104.117,0.688 Z"/>
</svg>