<svg 
 xmlns="http://www.w3.org/2000/svg"
 xmlns:xlink="http://www.w3.org/1999/xlink"
 width="1470px" height="436px">
<defs>
<linearGradient id="PSgrad_0" x1="0%" x2="0%" y1="100%" y2="0%">
  <stop offset="53%" stop-color="rgb(255,255,255)" stop-opacity="1" />
  <stop offset="89%" stop-color="rgb(240,251,255)" stop-opacity="1" />
  <stop offset="100%" stop-color="rgb(225,246,255)" stop-opacity="1" />
</linearGradient>

</defs>
<path fill-rule="evenodd"  fill="rgb(255, 255, 255)"
 d="M1366.602,0.001 C1366.602,0.001 1054.186,5.830 831.266,102.866 C608.345,199.901 498.461,126.749 392.702,89.951 C115.564,-6.477 16.568,232.386 0.409,275.975 C-15.750,319.564 442.018,436.008 442.018,436.008 C442.018,436.008 1455.882,255.700 1468.970,251.941 C1482.059,248.182 1366.602,0.001 1366.602,0.001 Z"/>
<path fill="url(#PSgrad_0)"
 d="M1366.602,0.001 C1366.602,0.001 1054.186,5.830 831.266,102.866 C608.345,199.901 498.461,126.749 392.702,89.951 C115.564,-6.477 16.568,232.386 0.409,275.975 C-15.750,319.564 442.018,436.008 442.018,436.008 C442.018,436.008 1455.882,255.700 1468.970,251.941 C1482.059,248.182 1366.602,0.001 1366.602,0.001 Z"/>
</svg>