<svg id="Слой_1" data-name="Слой 1" xmlns="http://www.w3.org/2000/svg" xmlns:xlink="http://www.w3.org/1999/xlink" viewBox="0 0 66 66"><defs><style>.cls-1,.cls-3{fill:#fff;}.cls-1{opacity:0.37;}.cls-1,.cls-2,.cls-3,.cls-4{isolation:isolate;}.cls-2{opacity:0.4;fill:url(#Безымянный_градиент);}.cls-3{opacity:0.59;}.cls-4{opacity:0.3;fill:url(#Безымянный_градиент_2);}.cls-5{fill:#11a2f6;}.cls-6{fill:#1a1a25;fill-opacity:0;}</style><linearGradient id="Безымянный_градиент" x1="-1014.43" y1="-377.93" x2="-1014.43" y2="-378.93" gradientTransform="translate(45688 17073) scale(45)" gradientUnits="userSpaceOnUse"><stop offset="0" stop-color="#fff"/><stop offset="0.76" stop-color="#bde4f4"/><stop offset="1" stop-color="#7bc8e9"/></linearGradient><linearGradient id="Безымянный_градиент_2" x1="-990.32" y1="-351.73" x2="-990.32" y2="-352.73" gradientTransform="translate(21798 7760) scale(22)" gradientUnits="userSpaceOnUse"><stop offset="0" stop-color="#7bc8e9"/><stop offset="0.24" stop-color="#bde4f4"/><stop offset="1" stop-color="#fff"/></linearGradient></defs><title>binoculars</title><path class="cls-1" d="M38.5,21A22.5,22.5,0,1,1,16,43.5,22.53,22.53,0,0,1,38.5,21Z"/><path class="cls-2" d="M38.5,21A22.5,22.5,0,1,1,16,43.5,22.53,22.53,0,0,1,38.5,21Z"/><path class="cls-3" d="M11,0A11,11,0,1,1,0,11,11,11,0,0,1,11,0Z"/><path class="cls-4" d="M11,0A11,11,0,1,1,0,11,11,11,0,0,1,11,0Z"/><path class="cls-5" d="M36.3,47A10.86,10.86,0,0,1,25.6,37H23.4A10.79,10.79,0,0,1,12.7,47,10.82,10.82,0,0,1,2,36.1,11.5,11.5,0,0,1,2.8,32h0L7.7,16.3a7.59,7.59,0,0,1,14.2-.9,3.63,3.63,0,0,1,2.6-1.1,3.47,3.47,0,0,1,2.6,1.1,7.62,7.62,0,0,1,14.2,1l4.9,15.7v.1a10,10,0,0,1,.7,3.9A10.67,10.67,0,0,1,36.3,47ZM20.9,18.7A5.89,5.89,0,0,0,9.4,16.8L6,27.7a10.54,10.54,0,0,1,14.8,1.4V18.7ZM12.7,27a9.1,9.1,0,0,0,0,18.2,9.1,9.1,0,0,0,0-18.2Zm13.7-8.3V18a1.84,1.84,0,0,0-1.9-1.9A1.9,1.9,0,0,0,22.6,18V28.6a3.86,3.86,0,0,1,3.8,0Zm0,13.1a1.84,1.84,0,0,0-1.9-1.9,1.9,1.9,0,0,0-1.9,1.9v.1a11.4,11.4,0,0,1,.8,3.3h2.2a14,14,0,0,1,.8-3.4ZM39.6,16.9A5.79,5.79,0,0,0,34,12.8a6,6,0,0,0-5.9,6V29a10.78,10.78,0,0,1,8.1-3.8,10.35,10.35,0,0,1,6.7,2.4ZM36.3,27a9.1,9.1,0,1,0,9,9.1A9.11,9.11,0,0,0,36.3,27Zm5.6,10.1a.9.9,0,0,1-.9-.9h0a.9.9,0,0,1,1.8,0v.1a.88.88,0,0,1-.9.8Zm-.5,3.1a6.49,6.49,0,0,1-5.2,2.6,6.6,6.6,0,0,1,0-13.2.9.9,0,0,1,0,1.8,4.78,4.78,0,0,0-4.7,4.8A4.72,4.72,0,0,0,40,39.1a.83.83,0,0,1,1.2-.2A.87.87,0,0,1,41.4,40.2ZM18.3,37a.9.9,0,0,1-.9-.9h0a.9.9,0,0,1,1.8,0h0a.84.84,0,0,1-.9.9Zm-.2,2.8a6.47,6.47,0,0,1-5.4,2.9,6.6,6.6,0,0,1,0-13.2.9.9,0,1,1,0,1.8A4.78,4.78,0,0,0,8,36.1a4.69,4.69,0,0,0,8.6,2.7.83.83,0,0,1,1.2-.2A.79.79,0,0,1,18.1,39.8Z"/><path class="cls-6" d="M0,0H66V66H0Z"/></svg>