<?xml version="1.0" encoding="utf-8"?>
<!-- Generator: Adobe Illustrator 21.1.0, SVG Export Plug-In . SVG Version: 6.00 Build 0)  -->
<svg version="1.1" id="Слой_1" xmlns="http://www.w3.org/2000/svg" xmlns:xlink="http://www.w3.org/1999/xlink" x="0px" y="0px"
	 viewBox="0 0 66 66" style="enable-background:new 0 0 66 66;" xml:space="preserve">
<style type="text/css">
	.st0{opacity:0.369;fill:#FFFFFF;enable-background:new    ;}
	.st1{opacity:0.4;fill:url(#SVGID_1_);}
	.st2{opacity:0.588;fill:#FFFFFF;enable-background:new    ;}
	.st3{opacity:0.3;fill:url(#SVGID_2_);}
	.st4{fill:#006FEB;}
	.st5{fill:#1A1A25;fill-opacity:0;}
</style>
<path class="st0" d="M38.5,21C50.9,21,61,31.1,61,43.5S50.9,66,38.5,66S16,55.9,16,43.5S26.1,21,38.5,21z"/>
<linearGradient id="SVGID_1_" gradientUnits="userSpaceOnUse" x1="-748.4778" y1="815.9778" x2="-748.4778" y2="816.9778" gradientTransform="matrix(45 0 0 -45 33720 36785)">
	<stop  offset="0" style="stop-color:#FFFFFF"/>
	<stop  offset="0.76" style="stop-color:#BDE4F4"/>
	<stop  offset="1" style="stop-color:#7BC8E9"/>
</linearGradient>
<path class="st1" d="M38.5,21C50.9,21,61,31.1,61,43.5S50.9,66,38.5,66S16,55.9,16,43.5S26.1,21,38.5,21z"/>
<path class="st2" d="M11,0c6.1,0,11,4.9,11,11s-4.9,11-11,11S0,17.1,0,11S4.9,0,11,0z"/>
<linearGradient id="SVGID_2_" gradientUnits="userSpaceOnUse" x1="-730.6818" y1="798.1818" x2="-730.6818" y2="799.1818" gradientTransform="matrix(22 0 0 -22 16086 17582)">
	<stop  offset="0" style="stop-color:#7BC8E9"/>
	<stop  offset="0.24" style="stop-color:#BDE4F4"/>
	<stop  offset="1" style="stop-color:#FFFFFF"/>
</linearGradient>
<path class="st3" d="M11,0c6.1,0,11,4.9,11,11s-4.9,11-11,11S0,17.1,0,11S4.9,0,11,0z"/>
<path class="st4" d="M36.3,47c-5.6,0-10.2-4.4-10.7-10h-2.2c-0.4,5.6-5.1,10-10.7,10C6.8,47,2,42.1,2,36.1c0-1.4,0.3-2.8,0.8-4.1
	c0,0,0,0,0,0l4.9-15.7c1-3.2,3.9-5.4,7.3-5.4c3,0,5.7,1.8,6.9,4.5c0.7-0.7,1.6-1.1,2.6-1.1c1,0,2,0.4,2.6,1.1C28.3,12.8,31,11,34,11
	c3.3,0,6.3,2.2,7.3,5.4l4.9,15.7c0,0,0,0.1,0,0.1c0.5,1.2,0.7,2.5,0.7,3.9C47,42.1,42.2,47,36.3,47z M20.9,18.7c0-3.3-2.6-6-5.9-6
	c-2.6,0-4.8,1.7-5.6,4.1L6,27.7c1.8-1.5,4.2-2.4,6.7-2.4c3.3,0,6.2,1.5,8.1,3.8V18.7z M12.7,27c-4.9,0-9,4.1-9,9.1c0,5,4,9.1,9,9.1
	c4.9,0,9-4.1,9-9.1C21.7,31.1,17.7,27,12.7,27z M26.4,18.7c0-0.2,0-0.6,0-0.7c0-1.1-0.8-1.9-1.9-1.9S22.6,17,22.6,18
	c0,0.1,0,0.5,0,0.7v9.9c0.6-0.3,1.2-0.5,1.9-0.5c0.7,0,1.3,0.2,1.9,0.5V18.7z M26.4,31.8c0-1.1-0.8-1.9-1.9-1.9s-1.9,0.9-1.9,1.9
	c0,0,0,0.1,0,0.1c0.4,1,0.7,2.1,0.8,3.3h2.2C25.7,34.1,26,32.9,26.4,31.8C26.4,31.9,26.4,31.8,26.4,31.8z M39.6,16.9
	c-0.8-2.5-3-4.1-5.6-4.1c-3.2,0-5.9,2.7-5.9,6V29c2-2.3,4.9-3.8,8.1-3.8c2.6,0,4.9,0.9,6.7,2.4L39.6,16.9z M36.3,27
	c-4.9,0-9,4.1-9,9.1c0,5,4,9.1,9,9.1c4.9,0,9-4.1,9-9.1C45.2,31.1,41.2,27,36.3,27z M41.9,37.1c-0.5,0-0.9-0.4-0.9-0.9v0
	c0-0.5,0.4-0.9,0.9-0.9c0.5,0,0.9,0.4,0.9,0.9v0.1C42.8,36.7,42.4,37.1,41.9,37.1C41.9,37.1,41.9,37.1,41.9,37.1z M41.4,40.2
	c-1.2,1.6-3.1,2.6-5.2,2.6c-3.6,0-6.5-3-6.5-6.6c0-3.6,2.9-6.6,6.5-6.6c0.5,0,0.9,0.4,0.9,0.9c0,0.5-0.4,0.9-0.9,0.9
	c-2.6,0-4.7,2.2-4.7,4.8c0,2.7,2.1,4.8,4.7,4.8c1.5,0,2.9-0.7,3.8-1.9c0.3-0.4,0.8-0.5,1.2-0.2C41.7,39.2,41.7,39.8,41.4,40.2z
	 M18.3,37c-0.5,0-0.9-0.4-0.9-0.9v0c0-0.5,0.4-0.9,0.9-0.9c0.5,0,0.9,0.4,0.9,0.9l0,0C19.2,36.7,18.8,37,18.3,37
	C18.3,37,18.3,37,18.3,37z M18.1,39.8c-1.2,1.8-3.2,2.9-5.4,2.9c-3.6,0-6.5-3-6.5-6.6c0-3.6,2.9-6.6,6.5-6.6c0.5,0,0.9,0.4,0.9,0.9
	c0,0.5-0.4,0.9-0.9,0.9c-2.6,0-4.7,2.2-4.7,4.8c0,2.7,2.1,4.8,4.7,4.8c1.6,0,3-0.8,3.9-2.1c0.3-0.4,0.8-0.5,1.2-0.2
	C18.3,38.9,18.4,39.4,18.1,39.8z"/>
<path class="st5" d="M0,0h66v66H0V0z"/>
</svg>
