<svg 
 xmlns="http://www.w3.org/2000/svg"
 xmlns:xlink="http://www.w3.org/1999/xlink"
 width="30px" height="30px">
<path fill-rule="evenodd"  fill-opacity="0" fill="rgb(198, 201, 206)"
 d="M-0.000,-0.000 L30.000,-0.000 L30.000,30.000 L-0.000,30.000 L-0.000,-0.000 Z"/>
<path fill-rule="evenodd"  fill="rgb(198, 201, 206)"
 d="M21.875,24.000 L8.125,24.000 C6.375,24.000 5.000,22.607 5.000,20.834 L5.000,9.433 C5.000,7.660 6.375,6.267 8.125,6.267 L10.625,6.267 L10.625,5.634 C10.625,5.254 10.875,5.000 11.250,5.000 C11.625,5.000 11.875,5.254 11.875,5.634 L11.875,6.267 L18.125,6.267 L18.125,5.634 C18.125,5.254 18.375,5.000 18.750,5.000 C19.125,5.000 19.375,5.254 19.375,5.634 L19.375,6.267 L21.875,6.267 C23.625,6.267 25.000,7.660 25.000,9.433 L25.000,20.834 C25.000,22.607 23.625,24.000 21.875,24.000 ZM6.250,20.834 C6.250,21.847 7.125,22.733 8.125,22.733 L21.875,22.733 C22.875,22.733 23.750,21.847 23.750,20.834 L23.750,12.600 L6.250,12.600 L6.250,20.834 ZM23.750,9.433 C23.750,8.420 22.875,7.533 21.875,7.533 L19.375,7.533 L19.375,8.167 C19.375,8.547 19.125,8.800 18.750,8.800 C18.375,8.800 18.125,8.547 18.125,8.167 L18.125,7.533 L11.875,7.533 L11.875,8.167 C11.875,8.547 11.625,8.800 11.250,8.800 C10.875,8.800 10.625,8.547 10.625,8.167 L10.625,7.533 L8.125,7.533 C7.125,7.533 6.250,8.420 6.250,9.433 L6.250,11.333 L23.750,11.333 L23.750,9.433 ZM20.625,20.834 C20.250,20.834 20.000,20.707 19.750,20.453 C19.500,20.200 19.375,19.820 19.375,19.566 C19.375,19.187 19.500,18.933 19.750,18.680 C20.250,18.173 21.000,18.173 21.500,18.680 C21.750,18.933 21.875,19.314 21.875,19.566 C21.875,19.820 21.750,20.200 21.500,20.453 C21.250,20.707 21.000,20.834 20.625,20.834 ZM20.625,17.033 C20.250,17.033 20.000,16.907 19.750,16.653 C19.500,16.400 19.375,16.020 19.375,15.767 C19.375,15.513 19.500,15.133 19.750,14.880 C20.250,14.373 21.000,14.373 21.500,14.880 C21.750,15.133 21.875,15.513 21.875,15.767 C21.875,16.147 21.750,16.400 21.500,16.653 C21.250,16.907 21.000,17.033 20.625,17.033 ZM16.875,20.834 C16.500,20.834 16.250,20.707 16.000,20.453 C15.750,20.200 15.625,19.820 15.625,19.566 C15.625,19.314 15.750,18.933 16.000,18.680 C16.500,18.173 17.250,18.173 17.750,18.680 C18.000,18.933 18.125,19.187 18.125,19.566 C18.125,19.947 18.000,20.200 17.750,20.453 C17.500,20.707 17.250,20.834 16.875,20.834 ZM16.875,17.033 C16.500,17.033 16.250,16.907 16.000,16.653 C15.750,16.400 15.625,16.020 15.625,15.767 C15.625,15.513 15.750,15.133 16.000,14.880 C16.500,14.373 17.250,14.373 17.750,14.880 C18.000,15.133 18.125,15.513 18.125,15.767 C18.125,16.147 18.000,16.400 17.750,16.653 C17.500,16.907 17.250,17.033 16.875,17.033 ZM13.125,20.834 C12.750,20.834 12.500,20.707 12.250,20.453 C12.000,20.200 11.875,19.820 11.875,19.566 C11.875,19.314 12.000,18.933 12.250,18.680 C12.750,18.173 13.500,18.173 14.000,18.680 C14.250,18.933 14.375,19.314 14.375,19.566 C14.375,19.820 14.250,20.200 14.000,20.453 C13.750,20.707 13.500,20.834 13.125,20.834 ZM13.125,17.033 C12.750,17.033 12.500,16.907 12.250,16.653 C12.000,16.400 11.875,16.020 11.875,15.767 C11.875,15.513 12.000,15.133 12.250,14.880 C12.750,14.373 13.500,14.373 14.000,14.880 C14.250,15.133 14.375,15.513 14.375,15.767 C14.375,16.020 14.250,16.400 14.000,16.653 C13.750,16.907 13.500,17.033 13.125,17.033 ZM9.375,20.834 C9.000,20.834 8.750,20.707 8.500,20.453 C8.250,20.200 8.125,19.820 8.125,19.566 C8.125,19.187 8.250,18.933 8.500,18.680 C9.000,18.173 9.750,18.173 10.250,18.680 C10.500,18.933 10.625,19.314 10.625,19.566 C10.625,19.820 10.500,20.200 10.250,20.453 C10.000,20.707 9.750,20.834 9.375,20.834 ZM9.375,17.033 C9.000,17.033 8.750,16.907 8.500,16.653 C8.250,16.400 8.125,16.147 8.125,15.767 C8.125,15.387 8.250,15.133 8.500,14.880 C9.000,14.373 9.750,14.373 10.250,14.880 C10.500,15.133 10.625,15.513 10.625,15.767 C10.625,16.020 10.500,16.400 10.250,16.653 C10.000,16.907 9.750,17.033 9.375,17.033 Z"/>
</svg>