<svg 
 xmlns="http://www.w3.org/2000/svg"
 xmlns:xlink="http://www.w3.org/1999/xlink"
 width="20px" height="19px">
<path fill-rule="evenodd"  fill="rgb(198, 201, 206)"
 d="M16.875,19.000 L3.125,19.000 C1.375,19.000 0.000,17.606 0.000,15.833 L0.000,4.433 C0.000,2.660 1.375,1.267 3.125,1.267 L5.625,1.267 L5.625,0.633 C5.625,0.254 5.875,0.000 6.250,0.000 C6.625,0.000 6.875,0.254 6.875,0.633 L6.875,1.267 L13.125,1.267 L13.125,0.633 C13.125,0.254 13.375,0.000 13.750,0.000 C14.125,0.000 14.375,0.254 14.375,0.633 L14.375,1.267 L16.875,1.267 C18.625,1.267 20.000,2.660 20.000,4.433 L20.000,15.833 C20.000,17.606 18.625,19.000 16.875,19.000 ZM1.250,15.833 C1.250,16.847 2.125,17.733 3.125,17.733 L16.875,17.733 C17.875,17.733 18.750,16.847 18.750,15.833 L18.750,7.600 L1.250,7.600 L1.250,15.833 ZM18.750,4.433 C18.750,3.420 17.875,2.533 16.875,2.533 L14.375,2.533 L14.375,3.167 C14.375,3.547 14.125,3.800 13.750,3.800 C13.375,3.800 13.125,3.547 13.125,3.167 L13.125,2.533 L6.875,2.533 L6.875,3.167 C6.875,3.547 6.625,3.800 6.250,3.800 C5.875,3.800 5.625,3.547 5.625,3.167 L5.625,2.533 L3.125,2.533 C2.125,2.533 1.250,3.420 1.250,4.433 L1.250,6.333 L18.750,6.333 L18.750,4.433 ZM15.625,15.833 C15.250,15.833 15.000,15.707 14.750,15.453 C14.500,15.200 14.375,14.820 14.375,14.567 C14.375,14.187 14.500,13.933 14.750,13.680 C15.250,13.173 16.000,13.173 16.500,13.680 C16.750,13.933 16.875,14.313 16.875,14.567 C16.875,14.820 16.750,15.200 16.500,15.453 C16.250,15.707 16.000,15.833 15.625,15.833 ZM15.625,12.033 C15.250,12.033 15.000,11.907 14.750,11.653 C14.500,11.400 14.375,11.020 14.375,10.766 C14.375,10.513 14.500,10.133 14.750,9.880 C15.250,9.373 16.000,9.373 16.500,9.880 C16.750,10.133 16.875,10.513 16.875,10.766 C16.875,11.147 16.750,11.400 16.500,11.653 C16.250,11.907 16.000,12.033 15.625,12.033 ZM11.875,15.833 C11.500,15.833 11.250,15.707 11.000,15.453 C10.750,15.200 10.625,14.820 10.625,14.567 C10.625,14.313 10.750,13.933 11.000,13.680 C11.500,13.173 12.250,13.173 12.750,13.680 C13.000,13.933 13.125,14.187 13.125,14.567 C13.125,14.947 13.000,15.200 12.750,15.453 C12.500,15.707 12.250,15.833 11.875,15.833 ZM11.875,12.033 C11.500,12.033 11.250,11.907 11.000,11.653 C10.750,11.400 10.625,11.020 10.625,10.766 C10.625,10.513 10.750,10.133 11.000,9.880 C11.500,9.373 12.250,9.373 12.750,9.880 C13.000,10.133 13.125,10.513 13.125,10.766 C13.125,11.147 13.000,11.400 12.750,11.653 C12.500,11.907 12.250,12.033 11.875,12.033 ZM8.125,15.833 C7.750,15.833 7.500,15.707 7.250,15.453 C7.000,15.200 6.875,14.820 6.875,14.567 C6.875,14.313 7.000,13.933 7.250,13.680 C7.750,13.173 8.500,13.173 9.000,13.680 C9.250,13.933 9.375,14.313 9.375,14.567 C9.375,14.820 9.250,15.200 9.000,15.453 C8.750,15.707 8.500,15.833 8.125,15.833 ZM8.125,12.033 C7.750,12.033 7.500,11.907 7.250,11.653 C7.000,11.400 6.875,11.020 6.875,10.766 C6.875,10.513 7.000,10.133 7.250,9.880 C7.750,9.373 8.500,9.373 9.000,9.880 C9.250,10.133 9.375,10.513 9.375,10.766 C9.375,11.020 9.250,11.400 9.000,11.653 C8.750,11.907 8.500,12.033 8.125,12.033 ZM4.375,15.833 C4.000,15.833 3.750,15.707 3.500,15.453 C3.250,15.200 3.125,14.820 3.125,14.567 C3.125,14.187 3.250,13.933 3.500,13.680 C4.000,13.173 4.750,13.173 5.250,13.680 C5.500,13.933 5.625,14.313 5.625,14.567 C5.625,14.820 5.500,15.200 5.250,15.453 C5.000,15.707 4.750,15.833 4.375,15.833 ZM4.375,12.033 C4.000,12.033 3.750,11.907 3.500,11.653 C3.250,11.400 3.125,11.147 3.125,10.766 C3.125,10.387 3.250,10.133 3.500,9.880 C4.000,9.373 4.750,9.373 5.250,9.880 C5.500,10.133 5.625,10.513 5.625,10.766 C5.625,11.020 5.500,11.400 5.250,11.653 C5.000,11.907 4.750,12.033 4.375,12.033 Z"/>
</svg>