<?xml version="1.0" encoding="utf-8"?>
<!-- Generator: Adobe Illustrator 22.1.0, SVG Export Plug-In . SVG Version: 6.00 Build 0)  -->
<svg version="1.1" id="Layer_1" xmlns="http://www.w3.org/2000/svg" xmlns:xlink="http://www.w3.org/1999/xlink" x="0px" y="0px"
	 viewBox="0 0 426.7 426.7" style="enable-background:new 0 0 426.7 426.7;" xml:space="preserve">
<style type="text/css">
	.st0{fill:#3FC59D;}
</style>
<path class="st0" d="M213.3,0C95.5,0,0,95.5,0,213.3s95.5,213.3,213.3,213.3c117.8,0,213.3-95.5,213.3-213.3S331.2,0,213.3,0z
	 M174.2,322.9l-78.3-78.3c-8.6-8.6-8.6-22.7,0-31.3l0,0c8.6-8.6,22.7-8.6,31.3,0l47,47l125.2-125.2c8.6-8.6,22.7-8.6,31.3,0l0,0
	c8.6,8.6,8.6,22.7,0,31.3L174.2,322.9z"/>
</svg>
