<?xml version="1.0" encoding="utf-8"?>
<!-- Generator: Adobe Illustrator 22.1.0, SVG Export Plug-In . SVG Version: 6.00 Build 0)  -->
<svg version="1.1" id="Слой_1" xmlns="http://www.w3.org/2000/svg" xmlns:xlink="http://www.w3.org/1999/xlink" x="0px" y="0px"
	 viewBox="0 0 50 50" style="enable-background:new 0 0 50 50;" xml:space="preserve">
<style type="text/css">
	.st0{fill:#2182EE;fill-opacity:0;}
	.st1{fill:#11A2F6;}
</style>
<path class="st0" d="M0,0h50v50H0V0z"/>
<path class="st1" d="M46.7,46.6H34.1v2c0,0.6-0.3,1.1-0.8,1.3C33.1,50,32.9,50,32.8,50c-0.4,0-0.7-0.1-1-0.4l-2.9-3h-5.5
	c-1.8,0-3.3-1.5-3.3-3.3v-0.1c-0.6,0.2-1.2,0.4-1.8,0.5v2.6c0,0.7-0.4,1.2-1,1.5c-0.2,0.1-0.4,0.1-0.6,0.1c-0.4,0-0.8-0.2-1.1-0.5
	l-3.7-3.7C8.3,43,5.2,41,3,38.1c-2.3-3-3.3-6.8-2.9-10.6c0.7-7,6.3-12.6,13.2-13.4c4.3-0.5,8.5,0.8,11.7,3.7
	c2.1,1.9,3.6,4.4,4.4,7.1h17.3c1.8,0,3.3,1.5,3.3,3.3v15.1C50,45.2,48.5,46.6,46.7,46.6z M23.9,19c-2.5-2.2-5.6-3.4-8.9-3.4
	c-0.5,0-1,0-1.6,0.1c-3,0.3-5.8,1.7-8,3.9c-2.2,2.2-3.5,5.1-3.8,8.1c-0.3,3.4,0.6,6.8,2.6,9.5c2,2.7,4.9,4.5,8.1,5.1
	c0.2,0,0.3,0.1,0.4,0.2l3.9,3.9c0,0,0,0,0.1,0c0,0,0,0,0,0v-3.2c0-0.4,0.3-0.7,0.6-0.8c6.4-1.1,11-6.7,11-13.3
	C28.4,25.2,26.8,21.6,23.9,19z M48.4,28.2c0-1-0.8-1.7-1.7-1.7h-17c0.1,0.8,0.2,1.7,0.2,2.6c0,5.9-3.3,11-8.4,13.5v0.8
	c0,1,0.8,1.7,1.7,1.7h5.8c0.2,0,0.4,0.1,0.6,0.2l2.8,2.9v-2.3c0-0.4,0.4-0.8,0.8-0.8h13.4c0.9,0,1.7-0.8,1.7-1.7l0,0V28.2z
	 M35.6,40.5c-0.2,0.2-0.4,0.2-0.6,0.2s-0.4-0.1-0.6-0.2l-4.2-4.2c-0.3-0.3-0.3-0.8,0-1.1s0.8-0.3,1.1,0l3.6,3.6l7.8-7.8
	c0.3-0.3,0.8-0.3,1.1,0c0.3,0.3,0.3,0.8,0,1.1L35.6,40.5z M15,32.8c-0.5,0-0.9-0.6-0.9-1.3v-9.7c0-0.7,0.4-1.3,0.9-1.3
	s0.9,0.6,0.9,1.3v9.7C15.9,32.2,15.5,32.8,15,32.8z M15,34.3C15,34.3,15,34.3,15,34.3c0.8,0,1.4,0.6,1.4,1.4v0v0
	c0,0.8-0.6,1.4-1.4,1.4c0,0,0,0,0,0c-0.8,0-1.4-0.6-1.4-1.4v0v0C13.6,35,14.2,34.3,15,34.3z"/>
</svg>
