<svg 
 xmlns="http://www.w3.org/2000/svg"
 xmlns:xlink="http://www.w3.org/1999/xlink"
 width="50px" height="50px">
<path fill-rule="evenodd"  fill-opacity="0" fill="rgb(33, 130, 238)"
 d="M0.000,0.000 L50.000,0.000 L50.000,50.000 L0.000,50.000 L0.000,0.000 Z"/>
<path fill-rule="evenodd"  fill="rgb(0, 111, 235)"
 d="M46.712,46.638 L34.134,46.638 L34.134,48.620 C34.134,49.180 33.801,49.680 33.287,49.894 C33.116,49.965 32.938,50.000 32.761,50.000 C32.405,50.000 32.056,49.860 31.793,49.595 L28.851,46.638 L23.330,46.638 C21.517,46.638 20.042,45.155 20.042,43.332 L20.042,43.229 C19.467,43.435 18.875,43.609 18.268,43.745 L18.268,46.347 C18.268,47.007 17.876,47.597 17.269,47.849 C17.068,47.933 16.857,47.974 16.648,47.974 C16.228,47.974 15.816,47.809 15.506,47.497 L11.810,43.781 C8.297,43.020 5.176,41.011 3.001,38.104 C0.732,35.072 -0.305,31.301 0.081,27.487 C0.788,20.500 6.337,14.868 13.275,14.097 C17.601,13.616 21.754,14.945 24.969,17.840 C27.090,19.749 28.605,22.212 29.376,24.913 L46.712,24.913 C48.525,24.913 50.000,26.396 50.000,28.219 L50.000,43.332 C50.000,45.155 48.525,46.638 46.712,46.638 ZM23.924,19.012 C21.432,16.768 18.308,15.575 14.998,15.575 C14.485,15.575 13.968,15.604 13.447,15.662 C10.454,15.994 7.617,17.385 5.458,19.576 C3.300,21.767 1.943,24.633 1.638,27.646 C1.292,31.065 2.221,34.443 4.253,37.158 C6.244,39.819 9.120,41.641 12.351,42.286 C12.503,42.317 12.642,42.392 12.752,42.502 L16.613,46.384 C16.626,46.397 16.637,46.408 16.670,46.395 C16.702,46.382 16.702,46.365 16.702,46.347 L16.702,43.101 C16.702,42.719 16.974,42.393 17.347,42.326 C23.748,41.178 28.393,35.600 28.393,29.062 C28.393,25.232 26.764,21.569 23.924,19.012 ZM48.434,28.219 C48.434,27.264 47.662,26.487 46.712,26.487 L29.736,26.487 C29.882,27.332 29.959,28.193 29.959,29.063 C29.959,34.920 26.620,40.088 21.608,42.565 L21.608,43.332 C21.608,44.287 22.381,45.064 23.330,45.064 L29.176,45.064 C29.383,45.064 29.582,45.147 29.729,45.294 L32.568,48.149 L32.568,45.851 C32.568,45.416 32.919,45.064 33.351,45.064 L46.712,45.064 C47.662,45.064 48.434,44.287 48.434,43.332 L48.434,43.332 L48.434,28.219 ZM35.574,40.530 C35.422,40.684 35.221,40.761 35.021,40.761 C34.821,40.761 34.620,40.684 34.467,40.530 L30.294,36.334 C29.988,36.027 29.988,35.528 30.294,35.221 C30.600,34.914 31.095,34.914 31.401,35.221 L35.021,38.861 L42.818,31.021 C43.124,30.714 43.620,30.714 43.925,31.021 C44.231,31.328 44.231,31.827 43.925,32.134 L35.574,40.530 ZM15.000,33.398 C14.247,33.398 13.636,32.787 13.636,32.034 L13.636,21.849 C13.636,21.096 14.247,20.485 15.000,20.485 C15.753,20.485 16.364,21.096 16.364,21.849 L16.364,32.034 C16.364,32.787 15.753,33.398 15.000,33.398 ZM14.988,34.334 C14.989,34.334 14.990,34.334 14.990,34.334 C15.745,34.334 16.358,34.950 16.358,35.709 C16.358,35.709 16.358,35.710 16.358,35.710 C16.358,35.710 16.358,35.711 16.358,35.711 C16.358,36.470 15.745,37.086 14.990,37.086 C14.990,37.086 14.989,37.086 14.988,37.086 C14.234,37.086 13.621,36.470 13.621,35.711 C13.621,35.711 13.621,35.710 13.621,35.710 C13.621,35.710 13.621,35.709 13.621,35.709 C13.621,34.950 14.234,34.334 14.988,34.334 Z"/>
</svg>