<svg id="Слой_1" data-name="Слой 1" xmlns="http://www.w3.org/2000/svg" xmlns:xlink="http://www.w3.org/1999/xlink" viewBox="0 0 66 66"><defs><style>.cls-1,.cls-3{fill:#fff;}.cls-1{opacity:0.37;}.cls-1,.cls-2,.cls-3,.cls-4{isolation:isolate;}.cls-2{opacity:0.4;fill:url(#Безымянный_градиент);}.cls-3{opacity:0.59;}.cls-4{opacity:0.3;fill:url(#Безымянный_градиент_2);}.cls-5{fill:#11a2f6;}.cls-6{fill:#1a1a25;fill-opacity:0;}</style><linearGradient id="Безымянный_градиент" x1="-1014.43" y1="-377.93" x2="-1014.43" y2="-378.93" gradientTransform="translate(45688 17073) scale(45)" gradientUnits="userSpaceOnUse"><stop offset="0" stop-color="#fff"/><stop offset="0.76" stop-color="#bde4f4"/><stop offset="1" stop-color="#7bc8e9"/></linearGradient><linearGradient id="Безымянный_градиент_2" x1="-990.32" y1="-351.73" x2="-990.32" y2="-352.73" gradientTransform="translate(21798 7760) scale(22)" gradientUnits="userSpaceOnUse"><stop offset="0" stop-color="#7bc8e9"/><stop offset="0.24" stop-color="#bde4f4"/><stop offset="1" stop-color="#fff"/></linearGradient></defs><title>cutlery</title><path class="cls-1" d="M38.5,21A22.5,22.5,0,1,1,16,43.5,22.53,22.53,0,0,1,38.5,21Z"/><path class="cls-2" d="M38.5,21A22.5,22.5,0,1,1,16,43.5,22.53,22.53,0,0,1,38.5,21Z"/><path class="cls-3" d="M11,0A11,11,0,1,1,0,11,11,11,0,0,1,11,0Z"/><path class="cls-4" d="M11,0A11,11,0,1,1,0,11,11,11,0,0,1,11,0Z"/><path class="cls-5" d="M45.1,47a2.9,2.9,0,0,1-2.9-2.9v-13a2,2,0,0,1-2-2V16.4h0A13.43,13.43,0,0,1,46.5,5.1a1,1,0,0,1,1.3.3,1.08,1.08,0,0,1,.2.7h0v24h0v14A2.9,2.9,0,0,1,45.1,47Zm1-39.1a11,11,0,0,0-3.9,8.5h0V29a.1.1,0,0,0,.1.1h3.8Zm0,23.2H44.2v13a1,1,0,1,0,2,0v-13ZM31.4,22.8h-.2l1.4,20.3a3.74,3.74,0,0,1-1,2.8,4,4,0,0,1-2.7,1.2,3.57,3.57,0,0,1-2.7-1.2,3.48,3.48,0,0,1-1-2.8l1.4-20.3h-.2A2.88,2.88,0,0,1,23.5,20V6a1,1,0,0,1,2,0V16.9H28V6a1,1,0,0,1,2,0V16.9h2.5V6a1,1,0,0,1,2,0V19.9A3.22,3.22,0,0,1,31.4,22.8ZM27.6,44.5a1.71,1.71,0,0,0,2.6,0,2.11,2.11,0,0,0,.5-1.3L29.3,22.8h-.8L27.1,43.2A1.9,1.9,0,0,0,27.6,44.5Zm4.8-25.7H25.5v1.1a.9.9,0,0,0,.9.9h5a.9.9,0,0,0,.9-.9V18.8ZM15.1,21.7,16.5,43a3.76,3.76,0,0,1-3.8,4,3.78,3.78,0,0,1-2.8-1.2,4.19,4.19,0,0,1-1-2.8l1.4-21.3a6.14,6.14,0,0,1-2.5-2.1,10.64,10.64,0,0,1-1.8-6,10.21,10.21,0,0,1,1.9-6A6,6,0,0,1,12.7,5a5.91,5.91,0,0,1,4.8,2.6,10,10,0,0,1,1.9,6,10.21,10.21,0,0,1-1.9,6A7.91,7.91,0,0,1,15.1,21.7ZM11.4,44.5a1.82,1.82,0,0,0,1.4.6,2,2,0,0,0,1.4-.6,1.87,1.87,0,0,0,.5-1.4L13.3,22.2h-1L10.9,43.1A1.55,1.55,0,0,0,11.4,44.5ZM12.7,6.9c-2.6,0-4.8,3-4.8,6.7,0,3.2,1.6,5.8,3.7,6.5h.1a3.55,3.55,0,0,0,1,.2c2.6,0,4.8-3,4.8-6.7S15.4,6.9,12.7,6.9Z"/><path class="cls-6" d="M0,0H66V66H0Z"/></svg>