<?xml version="1.0" encoding="utf-8"?>
<!-- Generator: Adobe Illustrator 21.1.0, SVG Export Plug-In . SVG Version: 6.00 Build 0)  -->
<svg version="1.1" id="Слой_1" xmlns="http://www.w3.org/2000/svg" xmlns:xlink="http://www.w3.org/1999/xlink" x="0px" y="0px"
	 viewBox="0 0 66 66" style="enable-background:new 0 0 66 66;" xml:space="preserve">
<style type="text/css">
	.st0{opacity:0.369;fill:#FFFFFF;enable-background:new    ;}
	.st1{opacity:0.4;fill:url(#SVGID_1_);}
	.st2{opacity:0.588;fill:#FFFFFF;enable-background:new    ;}
	.st3{opacity:0.3;fill:url(#SVGID_2_);}
	.st4{fill:#006FEB;}
	.st5{fill:#1A1A25;fill-opacity:0;}
</style>
<path class="st0" d="M38.5,21C50.9,21,61,31.1,61,43.5S50.9,66,38.5,66S16,55.9,16,43.5S26.1,21,38.5,21z"/>
<linearGradient id="SVGID_1_" gradientUnits="userSpaceOnUse" x1="-748.4778" y1="815.9778" x2="-748.4778" y2="816.9778" gradientTransform="matrix(45 0 0 -45 33720 36785)">
	<stop  offset="0" style="stop-color:#FFFFFF"/>
	<stop  offset="0.76" style="stop-color:#BDE4F4"/>
	<stop  offset="1" style="stop-color:#7BC8E9"/>
</linearGradient>
<path class="st1" d="M38.5,21C50.9,21,61,31.1,61,43.5S50.9,66,38.5,66S16,55.9,16,43.5S26.1,21,38.5,21z"/>
<path class="st2" d="M11,0c6.1,0,11,4.9,11,11s-4.9,11-11,11S0,17.1,0,11S4.9,0,11,0z"/>
<linearGradient id="SVGID_2_" gradientUnits="userSpaceOnUse" x1="-730.6818" y1="798.1818" x2="-730.6818" y2="799.1818" gradientTransform="matrix(22 0 0 -22 16086 17582)">
	<stop  offset="0" style="stop-color:#7BC8E9"/>
	<stop  offset="0.24" style="stop-color:#BDE4F4"/>
	<stop  offset="1" style="stop-color:#FFFFFF"/>
</linearGradient>
<path class="st3" d="M11,0c6.1,0,11,4.9,11,11s-4.9,11-11,11S0,17.1,0,11S4.9,0,11,0z"/>
<path class="st4" d="M45.1,47c-1.6,0-2.9-1.3-2.9-2.9v-13c-1.1,0-2-0.9-2-2V16.4c0,0,0,0,0,0c0-4.6,2.4-8.8,6.3-11.3
	c0.5-0.3,1-0.1,1.3,0.3C48,5.7,48,5.9,48,6.1l0,0v24c0,0,0,0,0,0v14C48,45.7,46.7,47,45.1,47z M46.1,7.9c-2.5,2.1-3.9,5.2-3.9,8.5
	c0,0,0,0,0,0V29c0,0.1,0.1,0.1,0.1,0.1h3.8V7.9z M46.1,31.1h-1.9v13c0,0.5,0.4,1,1,1c0.5,0,1-0.4,1-1V31.1z M31.4,22.8h-0.2
	l1.4,20.3c0.1,1-0.3,2-1,2.8c-0.7,0.7-1.7,1.2-2.7,1.2c-1,0-2-0.4-2.7-1.2c-0.7-0.7-1.1-1.7-1-2.8l1.4-20.3h-0.2
	c-1.6,0-2.9-1.3-2.9-2.8V6c0-0.5,0.4-1,1-1c0.5,0,1,0.4,1,1v10.9H28V6c0-0.5,0.4-1,1-1c0.5,0,1,0.4,1,1v10.9h2.5V6c0-0.5,0.4-1,1-1
	c0.5,0,1,0.4,1,1v13.9C34.3,21.5,33,22.8,31.4,22.8z M27.6,44.5c0.3,0.4,0.8,0.6,1.3,0.6c0.5,0,1-0.2,1.3-0.6
	c0.3-0.4,0.5-0.8,0.5-1.3l-1.4-20.4h-0.8l-1.4,20.4C27.1,43.7,27.3,44.2,27.6,44.5z M32.4,18.8h-6.9v1.1c0,0.5,0.4,0.9,0.9,0.9h1.2
	c0,0,0,0,0,0h3.8c0.5,0,0.9-0.4,0.9-0.9V18.8z M15.1,21.7L16.5,43c0.1,1-0.3,2.1-1,2.8c-0.7,0.8-1.7,1.2-2.8,1.2
	c-1,0-2.1-0.4-2.8-1.2C9.2,45,8.9,44,8.9,43l1.4-21.3c-0.9-0.4-1.8-1.1-2.5-2.1C6.7,18,6,15.9,6,13.6c0-2.2,0.7-4.4,1.9-6
	c1.3-1.7,3-2.6,4.8-2.6c1.8,0,3.6,0.9,4.8,2.6c1.2,1.6,1.9,3.7,1.9,6c0,2.2-0.7,4.4-1.9,6C16.8,20.5,16,21.2,15.1,21.7z M11.4,44.5
	c0.4,0.4,0.8,0.6,1.4,0.6c0.5,0,1-0.2,1.4-0.6c0.4-0.4,0.5-0.9,0.5-1.4l-1.4-20.9c-0.1,0-0.3,0-0.5,0s-0.3,0-0.5,0l-1.4,20.9
	C10.8,43.6,11,44.1,11.4,44.5z M12.7,6.9c-2.6,0-4.8,3-4.8,6.7c0,3.2,1.6,5.8,3.7,6.5c0,0,0.1,0,0.1,0c0.3,0.1,0.7,0.2,1,0.2
	c2.6,0,4.8-3,4.8-6.7C17.5,9.9,15.4,6.9,12.7,6.9z"/>
<path class="st5" d="M0,0h66v66H0V0z"/>
</svg>
