<svg id="Слой_1" data-name="Слой 1" xmlns="http://www.w3.org/2000/svg" viewBox="0 0 50 50"><defs><style>.cls-1{fill:#2182ee;fill-opacity:0;}.cls-2{fill:#11a2f6;}</style></defs><title>dish</title><path class="cls-1" d="M0,0H50V50H0Z"/><path class="cls-2" d="M39.69,50H2.31A2.31,2.31,0,0,1,0,47.68V46.8a2.31,2.31,0,0,1,2.31-2.32H3.78A17.3,17.3,0,0,1,19.47,27.91V27.2A2.93,2.93,0,0,1,21,21.76H21a2.93,2.93,0,0,1,1.5,5.44v.71A17.3,17.3,0,0,1,38.22,44.48h1.47A2.31,2.31,0,0,1,42,46.8v.88A2.31,2.31,0,0,1,39.69,50ZM22.55,24.69A1.53,1.53,0,0,0,21,23.16H21a1.53,1.53,0,0,0-.55,2.95.72.72,0,0,1,.44.65v1.09h.28V26.76a.72.72,0,0,1,.44-.65A1.52,1.52,0,0,0,22.55,24.69Zm18.06,23V46.8a.92.92,0,0,0-.92-.92H32.9a.7.7,0,0,1,0-1.4h3.93A15.88,15.88,0,0,0,21.09,29.25H20.9A15.88,15.88,0,0,0,5.17,44.48H28.41a.7.7,0,0,1,0,1.4H2.31a.92.92,0,0,0-.92.92v.88a.92.92,0,0,0,.92.92H39.69a.92.92,0,0,0,.92-.92ZM36.09,28A.7.7,0,0,1,35.51,29a.73.73,0,0,1-.59-.32c-.11-.18-2.7-4.29-.27-7.41,1.69-2.17-.7-5.12-.73-5.15a.72.72,0,0,1,.09-1,.69.69,0,0,1,1,.09,8.67,8.67,0,0,1,1.26,2.22,4.64,4.64,0,0,1-.51,4.7C33.93,24.5,36.07,27.91,36.09,28Zm-4.66,0a.71.71,0,0,1-.21,1,.76.76,0,0,1-.38.11.71.71,0,0,1-.58-.32c-.11-.18-2.7-4.29-.27-7.41,1.68-2.16-.69-5.11-.73-5.15a.72.72,0,0,1,.09-1,.69.69,0,0,1,1,.09,8.67,8.67,0,0,1,1.26,2.22,4.66,4.66,0,0,1-.51,4.7C29.27,24.5,31.41,27.91,31.43,28Zm-19.84.32a.71.71,0,0,1-.21,1,.67.67,0,0,1-.38.11.69.69,0,0,1-.58-.32c-.11-.17-2.7-4.28-.27-7.4,1.69-2.17-.71-5.13-.73-5.16a.71.71,0,0,1,.09-1,.7.7,0,0,1,1,.08,8.84,8.84,0,0,1,1.26,2.23,4.64,4.64,0,0,1-.51,4.69C9.43,24.82,11.57,28.24,11.59,28.27Zm-4.66,0a.72.72,0,0,1-.21,1,.69.69,0,0,1-1-.21c-.11-.17-2.7-4.28-.27-7.4,1.69-2.17-.71-5.13-.73-5.16a.7.7,0,0,1,1.06-.9A8.38,8.38,0,0,1,7.09,17.8a4.64,4.64,0,0,1-.51,4.69C4.76,24.82,6.9,28.24,6.93,28.27Z"/></svg>