<svg xmlns="http://www.w3.org/2000/svg" width="16" height="11" viewBox="0 0 16 11">
  <metadata><?xpacket begin="﻿" id="W5M0MpCehiHzreSzNTczkc9d"?>
<x:xmpmeta xmlns:x="adobe:ns:meta/" x:xmptk="Adobe XMP Core 5.6-c138 79.159824, 2016/09/14-01:09:01        ">
   <rdf:RDF xmlns:rdf="http://www.w3.org/1999/02/22-rdf-syntax-ns#">
      <rdf:Description rdf:about=""/>
   </rdf:RDF>
</x:xmpmeta>
                                                                                                    
                                                                                                    
                                                                                                    
                                                                                                    
                                                                                                    
                                                                                                    
                                                                                                    
                                                                                                    
                                                                                                    
                                                                                                    
                                                                                                    
                                                                                                    
                                                                                                    
                                                                                                    
                                                                                                    
                                                                                                    
                                                                                                    
                                                                                                    
                                                                                                    
                                                                                                    
                           
<?xpacket end="w"?></metadata>
<defs>
    <style>
      .cls-1 {
        fill: #009beb;
        fill-rule: evenodd;
      }
    </style>
  </defs>
  <path id="_-e-email-b" data-name="-e-email-b" class="cls-1" d="M92.536,365.756q0.3,0.2,1.83,1.206t2.339,1.546q0.089,0.059.379,0.257t0.482,0.322q0.192,0.123.464,0.275a2.76,2.76,0,0,0,.513.229,1.48,1.48,0,0,0,.447.075h0.018a1.48,1.48,0,0,0,.447-0.075,2.761,2.761,0,0,0,.513-0.229q0.272-.151.464-0.275t0.482-.322c0.194-.132.32-0.218,0.38-0.257q0.82-.543,4.178-2.752a4.116,4.116,0,0,0,1.089-1.042c0.292-.4.438,0.085,0.438-0.361a1.265,1.265,0,0,0-.424-0.957,1.42,1.42,0,0,0-1-.4H92.429a1.31,1.31,0,0,0-1.058.439,1.654,1.654,0,0,0-.371,1.1c0,0.355.164-.177,0.491,0.238A4.323,4.323,0,0,0,92.536,365.756Zm13.571,1.822q-2.928,1.881-4.446,2.921-0.51.355-.826,0.554a5.2,5.2,0,0,1-.844.407,2.7,2.7,0,0,1-.982.207H98.991a2.7,2.7,0,0,1-.982-0.207,5.151,5.151,0,0,1-.844-0.407q-0.317-.2-0.826-0.554-1.205-.837-4.438-2.921a4.641,4.641,0,0,1-.9-0.736v5.805a1.268,1.268,0,0,0,.42.956,1.411,1.411,0,0,0,1.009.4h13.143a1.409,1.409,0,0,0,1.008-.4,1.268,1.268,0,0,0,.42-0.956v-5.805A4.826,4.826,0,0,1,106.107,367.578Z" transform="translate(-91 -363)"/>
</svg>
