<svg 
 xmlns="http://www.w3.org/2000/svg"
 xmlns:xlink="http://www.w3.org/1999/xlink"
 width="30px" height="30px">
<path fill-rule="evenodd"  fill-opacity="0" fill="rgb(198, 201, 206)"
 d="M-0.000,-0.000 L30.000,-0.000 L30.000,30.000 L-0.000,30.000 L-0.000,-0.000 Z"/>
<path fill-rule="evenodd"  fill="rgb(198, 201, 206)"
 d="M23.814,22.000 L6.182,22.000 C4.977,22.000 3.996,21.031 3.996,19.838 L3.996,9.162 C3.996,7.970 4.977,7.000 6.182,7.000 L23.814,7.000 C25.019,7.000 26.000,7.969 26.000,9.162 L26.000,19.838 C26.000,21.030 25.019,22.000 23.814,22.000 ZM6.182,20.680 L23.814,20.680 C24.283,20.680 24.665,20.303 24.665,19.838 L24.665,10.439 L15.381,16.958 C15.266,17.037 15.132,17.077 14.998,17.077 C14.864,17.077 14.730,17.037 14.615,16.958 L5.331,10.439 L5.331,19.838 C5.331,20.303 5.713,20.680 6.182,20.680 ZM23.814,8.320 L6.182,8.320 C5.819,8.320 5.514,8.547 5.392,8.864 L14.998,15.612 L24.604,8.864 C24.482,8.547 24.177,8.320 23.814,8.320 Z"/>
</svg>