<svg 
 xmlns="http://www.w3.org/2000/svg"
 xmlns:xlink="http://www.w3.org/1999/xlink"
 width="22px" height="15px">
<path fill-rule="evenodd"  fill="rgb(198, 201, 206)"
 d="M19.814,15.000 L2.182,15.000 C0.977,15.000 -0.004,14.030 -0.004,12.838 L-0.004,2.162 C-0.004,0.970 0.977,0.000 2.182,0.000 L19.814,0.000 C21.019,0.000 22.000,0.970 22.000,2.162 L22.000,12.838 C22.000,14.030 21.019,15.000 19.814,15.000 ZM2.182,13.680 L19.814,13.680 C20.283,13.680 20.665,13.303 20.665,12.838 L20.665,3.439 L11.381,9.958 C11.266,10.038 11.132,10.077 10.998,10.077 C10.864,10.077 10.730,10.038 10.615,9.958 L1.331,3.439 L1.331,12.838 C1.331,13.303 1.713,13.680 2.182,13.680 ZM19.814,1.320 L2.182,1.320 C1.820,1.320 1.514,1.547 1.392,1.864 L10.998,8.612 L20.604,1.864 C20.482,1.547 20.177,1.320 19.814,1.320 Z"/>
</svg>