<svg 
 xmlns="http://www.w3.org/2000/svg"
 xmlns:xlink="http://www.w3.org/1999/xlink"
 width="16px" height="11px">
<path fill-rule="evenodd"  fill="rgb(255, 255, 255)"
 d="M15.580,10.603 C15.301,10.868 14.964,11.001 14.571,11.001 L1.429,11.001 C1.036,11.001 0.699,10.868 0.420,10.603 C0.140,10.338 -0.000,10.019 -0.000,9.647 L-0.000,3.842 C0.262,4.118 0.563,4.364 0.902,4.578 C3.056,5.967 4.536,6.940 5.339,7.499 C5.679,7.736 5.954,7.921 6.165,8.054 C6.376,8.186 6.658,8.321 7.009,8.460 C7.360,8.598 7.687,8.667 7.991,8.667 L8.000,8.667 L8.009,8.667 C8.313,8.667 8.640,8.598 8.991,8.460 C9.342,8.321 9.623,8.186 9.835,8.054 C10.046,7.921 10.321,7.736 10.661,7.499 C11.672,6.805 13.155,5.831 15.107,4.578 C15.447,4.358 15.744,4.113 16.000,3.842 L16.000,9.647 C16.000,10.019 15.860,10.338 15.580,10.603 ZM15.562,1.715 C15.271,2.121 14.908,2.468 14.473,2.756 C12.235,4.229 10.842,5.146 10.295,5.507 C10.235,5.547 10.109,5.632 9.915,5.765 C9.722,5.898 9.561,6.005 9.433,6.087 C9.305,6.169 9.150,6.260 8.969,6.362 C8.787,6.464 8.616,6.540 8.455,6.591 C8.295,6.641 8.146,6.667 8.009,6.667 L8.000,6.667 L7.991,6.667 C7.854,6.667 7.705,6.641 7.544,6.591 C7.384,6.540 7.213,6.464 7.031,6.362 C6.850,6.261 6.695,6.169 6.567,6.087 C6.439,6.005 6.278,5.898 6.085,5.765 C5.891,5.633 5.765,5.547 5.705,5.507 C5.164,5.146 4.384,4.631 3.366,3.962 C2.348,3.293 1.738,2.891 1.536,2.756 C1.167,2.519 0.818,2.193 0.491,1.778 C0.164,1.364 -0.000,1.895 -0.000,1.539 C-0.000,1.099 0.123,0.732 0.370,0.439 C0.617,0.145 0.970,-0.001 1.428,-0.001 L14.571,-0.001 C14.958,-0.001 15.293,0.131 15.576,0.396 C15.858,0.662 16.000,0.981 16.000,1.353 C16.000,1.799 15.854,1.308 15.562,1.715 Z"/>
</svg>