<?xml version="1.0" encoding="utf-8"?>
<!-- Generator: Adobe Illustrator 22.1.0, SVG Export Plug-In . SVG Version: 6.00 Build 0)  -->
<svg version="1.1" id="Capa_1" xmlns="http://www.w3.org/2000/svg" xmlns:xlink="http://www.w3.org/1999/xlink" x="0px" y="0px"
	 viewBox="0 0 512 512" style="enable-background:new 0 0 512 512;" xml:space="preserve">
<style type="text/css">
	.st0{fill:#F5415F;}
</style>
<g>
	<g>
		<path class="st0" d="M437.1,74.9C337.2-25,174.8-25,74.9,74.9c-99.9,99.9-99.8,262.3,0,362.2c99.9,99.9,262.3,99.9,362.2,0
			C537,337.2,537,174.7,437.1,74.9z M361.6,361.6c-4.9,5-11.5,7.7-18.5,7.7s-13.6-2.7-18.5-7.7L256,293l-72,72
			c-4.9,5-11.5,7.7-18.5,7.7s-13.6-2.7-18.5-7.7c-5-4.9-7.7-11.5-7.7-18.5s2.7-13.6,7.7-18.5l72-72l-68.5-68.5
			c-4.9-5-7.7-11.5-7.7-18.5s2.7-13.6,7.7-18.5c4.9-4.9,11.5-7.7,18.5-7.7s13.6,2.7,18.5,7.7l68.5,68.5l65.1-65.1
			c5-4.9,11.5-7.7,18.5-7.7c7,0,13.6,2.7,18.5,7.7c5,5,7.7,11.5,7.7,18.5s-2.7,13.6-7.7,18.5L293,256l68.5,68.5
			c4.9,5,7.7,11.5,7.7,18.5C369.3,350.1,366.5,356.6,361.6,361.6z"/>
	</g>
</g>
</svg>
