<svg 
 xmlns="http://www.w3.org/2000/svg"
 xmlns:xlink="http://www.w3.org/1999/xlink"
 width="10px" height="22px">
<path fill-rule="evenodd"  opacity="0.902" fill="rgb(34, 32, 32)"
 d="M2.203,4.743 C2.203,5.257 2.203,7.555 2.203,7.555 L0.179,7.555 L0.179,10.994 L2.203,10.994 L2.203,21.214 L6.362,21.214 L6.362,10.994 L9.153,10.994 C9.153,10.994 9.415,9.345 9.542,7.542 C9.178,7.542 6.378,7.542 6.378,7.542 C6.378,7.542 6.378,5.541 6.378,5.191 C6.378,4.839 6.832,4.366 7.280,4.366 C7.727,4.366 8.671,4.366 9.546,4.366 C9.546,3.898 9.546,2.280 9.546,0.786 C8.379,0.786 7.050,0.786 6.465,0.786 C2.100,0.786 2.203,4.229 2.203,4.743 Z"/>
</svg>