<svg id="Слой_1" data-name="Слой 1" xmlns="http://www.w3.org/2000/svg" xmlns:xlink="http://www.w3.org/1999/xlink" viewBox="0 0 66 66"><defs><style>.cls-1,.cls-3{fill:#fff;}.cls-1{opacity:0.37;}.cls-1,.cls-2,.cls-3,.cls-4{isolation:isolate;}.cls-2{opacity:0.4;fill:url(#Безымянный_градиент);}.cls-3{opacity:0.59;}.cls-4{opacity:0.3;fill:url(#Безымянный_градиент_2);}.cls-5{fill:#11a2f6;}.cls-6{fill:#1a1a25;fill-opacity:0;}</style><linearGradient id="Безымянный_градиент" x1="-1014.43" y1="-377.93" x2="-1014.43" y2="-378.93" gradientTransform="translate(45688 17073) scale(45)" gradientUnits="userSpaceOnUse"><stop offset="0" stop-color="#fff"/><stop offset="0.76" stop-color="#bde4f4"/><stop offset="1" stop-color="#7bc8e9"/></linearGradient><linearGradient id="Безымянный_градиент_2" x1="-990.32" y1="-351.73" x2="-990.32" y2="-352.73" gradientTransform="translate(21798 7760) scale(22)" gradientUnits="userSpaceOnUse"><stop offset="0" stop-color="#7bc8e9"/><stop offset="0.24" stop-color="#bde4f4"/><stop offset="1" stop-color="#fff"/></linearGradient></defs><title>flag</title><path class="cls-1" d="M38.5,21A22.5,22.5,0,1,1,16,43.5,22.53,22.53,0,0,1,38.5,21Z"/><path class="cls-2" d="M38.5,21A22.5,22.5,0,1,1,16,43.5,22.53,22.53,0,0,1,38.5,21Z"/><path class="cls-3" d="M11,0A11,11,0,1,1,0,11,11,11,0,0,1,11,0Z"/><path class="cls-4" d="M11,0A11,11,0,1,1,0,11,11,11,0,0,1,11,0Z"/><path class="cls-5" d="M34.7,16.3l6.1-8.2a1.07,1.07,0,0,0-.9-1.7H13.6V5a2.56,2.56,0,0,0,1.5-2.4,2.6,2.6,0,0,0-5.2,0A2.67,2.67,0,0,0,11.4,5V44.9H10a1.1,1.1,0,1,0,0,2.2h5a1.1,1.1,0,1,0,0-2.2H13.6V26.2H39.9a1.1,1.1,0,0,0,1-.6,1.07,1.07,0,0,0-.1-1.1ZM12.5,3.2a.58.58,0,0,1-.6-.6.6.6,0,1,1,1.2,0C13.2,3,12.9,3.2,12.5,3.2Zm1.1,20.9h0V20.5H17a1.1,1.1,0,1,0,0-2.2H13.6v-4H19a1.1,1.1,0,1,0,0-2.2H13.6V8.5H37.8l-5.3,7.1a1.05,1.05,0,0,0,0,1.3L37.8,24H13.6Z"/><path class="cls-6" d="M0,0H66V66H0Z"/></svg>