<svg 
 xmlns="http://www.w3.org/2000/svg"
 xmlns:xlink="http://www.w3.org/1999/xlink"
 width="50px" height="50px">
<path fill-rule="evenodd"  fill-opacity="0" fill="rgb(33, 130, 238)"
 d="M0.000,0.000 L50.000,0.000 L50.000,50.000 L0.000,50.000 L0.000,0.000 Z"/>
<path fill-rule="evenodd"  fill="rgb(0, 111, 235)"
 d="M31.868,34.150 C30.862,34.403 30.119,35.273 30.021,36.317 L29.457,42.300 L29.458,42.300 L29.136,45.718 C28.979,47.385 26.616,48.455 26.143,48.652 C24.033,49.550 21.767,49.999 19.500,49.999 C17.231,49.999 14.963,49.550 12.850,48.650 C12.791,48.626 12.703,48.588 12.594,48.537 C11.825,48.178 9.998,47.177 9.861,45.718 L9.539,42.300 L9.540,42.300 L8.976,36.317 C8.878,35.273 8.135,34.403 7.129,34.150 C2.891,33.084 -0.043,29.252 -0.006,24.832 C0.033,20.108 3.570,16.086 8.221,15.477 C9.488,15.312 10.754,15.411 11.993,15.771 C13.771,13.401 16.541,12.001 19.500,12.001 C22.459,12.001 25.229,13.401 27.006,15.771 C28.245,15.410 29.511,15.311 30.779,15.477 C35.429,16.086 38.966,20.108 39.006,24.832 C39.043,29.252 36.109,33.084 31.868,34.150 ZM11.201,45.590 C11.261,46.225 12.530,47.043 13.369,47.396 C17.266,49.055 21.732,49.055 25.626,47.398 C26.468,47.044 27.738,46.225 27.797,45.590 L27.880,44.707 C25.220,46.007 22.407,46.665 19.499,46.665 C16.591,46.665 13.778,46.007 11.118,44.707 L11.201,45.590 ZM30.606,16.826 C29.381,16.666 28.156,16.795 26.963,17.209 L26.476,17.379 L26.186,16.948 C24.680,14.702 22.181,13.360 19.500,13.360 C16.818,13.360 14.319,14.702 12.813,16.947 L12.524,17.378 L12.037,17.209 C11.174,16.909 10.294,16.758 9.411,16.758 C9.072,16.758 8.733,16.781 8.394,16.825 C4.405,17.347 1.373,20.794 1.338,24.844 C1.307,28.632 3.822,31.916 7.454,32.830 C9.012,33.222 10.163,34.571 10.315,36.188 L10.966,43.095 C13.660,44.557 16.528,45.305 19.500,45.305 C22.471,45.305 25.340,44.557 28.033,43.095 L28.684,36.188 C28.837,34.572 29.987,33.222 31.545,32.830 C35.178,31.917 37.693,28.633 37.661,24.844 C37.627,20.794 34.593,17.347 30.606,16.826 ZM25.554,41.907 C25.527,41.907 25.498,41.905 25.470,41.902 C25.101,41.856 24.840,41.516 24.886,41.143 L25.559,35.706 C25.605,35.333 25.944,35.073 26.309,35.116 C26.678,35.162 26.940,35.502 26.893,35.874 L26.221,41.312 C26.178,41.656 25.888,41.907 25.554,41.907 ZM22.863,17.439 C22.730,17.439 22.595,17.398 22.478,17.316 C19.388,15.134 16.576,17.275 16.548,17.297 C16.254,17.525 15.831,17.471 15.604,17.174 C15.377,16.877 15.431,16.450 15.725,16.221 C16.966,15.254 20.134,14.004 23.249,16.201 C23.554,16.416 23.628,16.840 23.415,17.148 C23.284,17.337 23.075,17.439 22.863,17.439 ZM17.482,36.470 C17.853,36.470 18.154,36.774 18.154,37.149 L18.154,42.587 C18.154,42.963 17.853,43.267 17.482,43.267 C17.110,43.267 16.809,42.963 16.809,42.587 L16.809,37.149 C16.809,36.774 17.110,36.470 17.482,36.470 ZM21.518,36.470 C21.889,36.470 22.190,36.774 22.190,37.149 L22.190,42.587 C22.190,42.963 21.889,43.267 21.518,43.267 C21.146,43.267 20.845,42.963 20.845,42.587 L20.845,37.149 C20.845,36.774 21.146,36.470 21.518,36.470 ZM13.529,41.902 C13.501,41.905 13.473,41.907 13.445,41.907 C13.111,41.907 12.821,41.656 12.779,41.312 L12.106,35.874 C12.060,35.502 12.321,35.162 12.690,35.116 C13.054,35.073 13.394,35.333 13.440,35.706 L14.113,41.143 C14.159,41.516 13.898,41.856 13.529,41.902 ZM10.748,20.157 C6.173,20.078 5.367,23.664 5.359,23.700 C5.290,24.019 5.011,24.235 4.702,24.235 C4.655,24.235 4.606,24.230 4.557,24.219 C4.195,24.139 3.965,23.777 4.045,23.410 C4.054,23.363 5.147,18.750 10.763,18.798 C11.134,18.802 11.433,19.110 11.429,19.484 C11.425,19.859 11.108,20.131 10.748,20.157 Z"/>
</svg>