<svg 
 xmlns="http://www.w3.org/2000/svg"
 xmlns:xlink="http://www.w3.org/1999/xlink"
 width="16px" height="11px">
<path fill-rule="evenodd"  fill="rgb(0, 155, 235)"
 d="M15.580,10.603 C15.301,10.869 14.964,11.001 14.572,11.001 L1.429,11.001 C1.036,11.001 0.699,10.869 0.420,10.603 C0.140,10.338 -0.000,10.020 -0.000,9.647 L-0.000,3.842 C0.262,4.119 0.563,4.364 0.902,4.578 C3.057,5.967 4.536,6.941 5.339,7.499 C5.679,7.736 5.954,7.921 6.165,8.053 C6.376,8.186 6.658,8.322 7.009,8.460 C7.360,8.598 7.687,8.667 7.991,8.667 L8.000,8.667 L8.009,8.667 C8.313,8.667 8.640,8.598 8.991,8.460 C9.342,8.322 9.623,8.186 9.835,8.053 C10.046,7.921 10.321,7.736 10.661,7.499 C11.673,6.804 13.155,5.832 15.107,4.578 C15.447,4.358 15.744,4.113 16.000,3.842 L16.000,9.647 C16.000,10.020 15.860,10.338 15.580,10.603 ZM15.562,1.714 C15.271,2.121 14.908,2.468 14.473,2.756 C12.235,4.229 10.842,5.146 10.295,5.508 C10.235,5.547 10.109,5.633 9.915,5.765 C9.722,5.898 9.561,6.005 9.433,6.087 C9.305,6.169 9.150,6.261 8.969,6.362 C8.788,6.464 8.616,6.540 8.455,6.591 C8.295,6.642 8.146,6.666 8.009,6.666 L8.000,6.666 L7.991,6.666 C7.854,6.666 7.705,6.642 7.544,6.591 C7.384,6.540 7.213,6.464 7.031,6.362 C6.849,6.261 6.695,6.169 6.567,6.087 C6.439,6.005 6.278,5.898 6.085,5.765 C5.891,5.633 5.765,5.547 5.705,5.508 C5.164,5.146 4.384,4.631 3.366,3.962 C2.348,3.294 1.738,2.891 1.536,2.756 C1.167,2.519 0.818,2.193 0.491,1.778 C0.164,1.363 -0.000,1.895 -0.000,1.540 C-0.000,1.099 0.124,0.732 0.370,0.438 C0.618,0.146 0.970,-0.001 1.429,-0.001 L14.572,-0.001 C14.958,-0.001 15.293,0.131 15.576,0.396 C15.859,0.662 16.000,0.980 16.000,1.353 C16.000,1.799 15.854,1.309 15.562,1.714 Z"/>
</svg>