<svg 
 xmlns="http://www.w3.org/2000/svg"
 xmlns:xlink="http://www.w3.org/1999/xlink"
 width="61px" height="66px">
<defs>
<linearGradient id="PSgrad_0" x1="0%" x2="0%" y1="100%" y2="0%">
  <stop offset="0%" stop-color="rgb(255,255,255)" stop-opacity="1" />
  <stop offset="76%" stop-color="rgb(189,228,244)" stop-opacity="1" />
  <stop offset="100%" stop-color="rgb(123,200,233)" stop-opacity="1" />
</linearGradient>
<linearGradient id="PSgrad_1" x1="0%" x2="0%" y1="100%" y2="0%">
  <stop offset="0%" stop-color="rgb(123,200,233)" stop-opacity="1" />
  <stop offset="24%" stop-color="rgb(189,228,244)" stop-opacity="1" />
  <stop offset="100%" stop-color="rgb(255,255,255)" stop-opacity="1" />
</linearGradient>

</defs>
<path fill-rule="evenodd"  opacity="0.369" fill="rgb(255, 255, 255)"
 d="M38.500,21.000 C50.926,21.000 61.000,31.074 61.000,43.500 C61.000,55.926 50.926,66.000 38.500,66.000 C26.074,66.000 16.000,55.926 16.000,43.500 C16.000,31.074 26.074,21.000 38.500,21.000 Z"/>
<path fill="url(#PSgrad_0)"
 d="M38.500,21.000 C50.926,21.000 61.000,31.074 61.000,43.500 C61.000,55.926 50.926,66.000 38.500,66.000 C26.074,66.000 16.000,55.926 16.000,43.500 C16.000,31.074 26.074,21.000 38.500,21.000 Z"/>
<path fill-rule="evenodd"  opacity="0.588" fill="rgb(255, 255, 255)"
 d="M11.000,-0.000 C17.075,-0.000 22.000,4.925 22.000,11.000 C22.000,17.075 17.075,22.000 11.000,22.000 C4.925,22.000 -0.000,17.075 -0.000,11.000 C-0.000,4.925 4.925,-0.000 11.000,-0.000 Z"/>
<path fill="url(#PSgrad_1)"
 d="M11.000,-0.000 C17.075,-0.000 22.000,4.925 22.000,11.000 C22.000,17.075 17.075,22.000 11.000,22.000 C4.925,22.000 -0.000,17.075 -0.000,11.000 C-0.000,4.925 4.925,-0.000 11.000,-0.000 Z"/>
<path fill-rule="evenodd"  fill="rgb(0, 111, 235)"
 d="M29.117,33.178 L34.921,45.448 C35.115,45.859 35.033,46.346 34.716,46.671 C34.507,46.885 34.225,46.998 33.939,46.998 C33.790,46.998 33.639,46.967 33.497,46.904 L26.226,43.669 L18.955,46.904 C18.674,47.029 18.353,47.029 18.072,46.904 L10.801,43.669 L3.529,46.904 C3.114,47.088 2.628,46.996 2.311,46.671 C1.993,46.346 1.911,45.858 2.106,45.448 L7.909,33.178 C8.021,32.943 8.212,32.756 8.450,32.650 L11.354,31.359 L6.351,22.979 C6.339,22.959 6.328,22.938 6.317,22.917 C5.323,20.979 4.805,18.796 4.818,16.603 C4.839,13.015 6.254,9.626 8.802,7.059 C11.350,4.492 14.730,3.051 18.319,3.001 C22.016,2.949 25.500,4.349 28.130,6.941 C30.760,9.533 32.208,12.994 32.208,16.686 C32.208,18.881 31.704,20.977 30.709,22.918 C30.698,22.938 30.687,22.959 30.675,22.979 L25.672,31.359 L28.560,32.644 C28.800,32.746 29.001,32.934 29.117,33.178 ZM28.791,21.897 C29.617,20.274 30.036,18.522 30.036,16.686 C30.036,13.580 28.817,10.668 26.604,8.487 C24.392,6.306 21.459,5.130 18.350,5.172 C12.123,5.258 7.028,10.392 6.991,16.616 C6.980,18.476 7.399,20.253 8.235,21.897 L17.580,37.550 C17.866,38.028 18.328,38.079 18.513,38.079 C18.699,38.079 19.161,38.028 19.446,37.550 L28.791,21.897 ZM24.551,33.237 L21.312,38.662 C20.718,39.657 19.672,40.250 18.513,40.250 C17.354,40.250 16.308,39.657 15.714,38.662 L12.475,33.237 L9.702,34.470 L5.321,43.730 L10.358,41.489 C10.640,41.364 10.961,41.364 11.242,41.489 L18.513,44.724 L25.784,41.489 C26.065,41.364 26.387,41.364 26.668,41.489 L31.705,43.730 L27.325,34.471 L24.551,33.237 ZM13.556,16.686 C13.556,13.954 15.780,11.731 18.514,11.731 C21.248,11.731 23.471,13.954 23.471,16.686 C23.471,19.418 21.248,21.641 18.514,21.641 C15.780,21.641 13.556,19.418 13.556,16.686 ZM21.299,16.686 C21.299,15.151 20.049,13.902 18.514,13.902 C16.978,13.902 15.728,15.151 15.728,16.686 C15.728,18.221 16.978,19.469 18.514,19.469 C20.049,19.469 21.299,18.221 21.299,16.686 Z"/>
</svg>