<svg id="Слой_1" data-name="Слой 1" xmlns="http://www.w3.org/2000/svg" xmlns:xlink="http://www.w3.org/1999/xlink" viewBox="0 0 66 66"><defs><style>.cls-1,.cls-3{fill:#fff;}.cls-1{opacity:0.37;}.cls-1,.cls-2,.cls-3,.cls-4{isolation:isolate;}.cls-2{opacity:0.4;fill:url(#Безымянный_градиент);}.cls-3{opacity:0.59;}.cls-4{opacity:0.3;fill:url(#Безымянный_градиент_2);}.cls-5{fill:#11a2f6;}.cls-6{fill:#006feb;fill-opacity:0;}</style><linearGradient id="Безымянный_градиент" x1="-1014.43" y1="-377.93" x2="-1014.43" y2="-378.93" gradientTransform="translate(45691 17073) scale(45)" gradientUnits="userSpaceOnUse"><stop offset="0" stop-color="#fff"/><stop offset="0.76" stop-color="#bde4f4"/><stop offset="1" stop-color="#7bc8e9"/></linearGradient><linearGradient id="Безымянный_градиент_2" x1="-990.32" y1="-351.73" x2="-990.32" y2="-352.73" gradientTransform="translate(21801 7760) scale(22)" gradientUnits="userSpaceOnUse"><stop offset="0" stop-color="#7bc8e9"/><stop offset="0.24" stop-color="#bde4f4"/><stop offset="1" stop-color="#fff"/></linearGradient></defs><title>mark-map</title><path class="cls-1" d="M41.5,21A22.5,22.5,0,1,1,19,43.5,22.53,22.53,0,0,1,41.5,21Z"/><path class="cls-2" d="M41.5,21A22.5,22.5,0,1,1,19,43.5,22.53,22.53,0,0,1,41.5,21Z"/><path class="cls-3" d="M14,0A11,11,0,1,1,3,11,11,11,0,0,1,14,0Z"/><path class="cls-4" d="M14,0A11,11,0,1,1,3,11,11,11,0,0,1,14,0Z"/><path class="cls-5" d="M32.1,33.2l5.8,12.3a1.06,1.06,0,0,1-.2,1.2,1.14,1.14,0,0,1-.8.3.6.6,0,0,1-.4-.1l-7.3-3.2L22,46.9a1.39,1.39,0,0,1-.9,0l-7.3-3.2L6.5,46.9a1,1,0,0,1-1.4-1.4l5.8-12.3a1.21,1.21,0,0,1,.5-.5l2.9-1.3L9.3,23v-.1a13.61,13.61,0,0,1-1.5-6.3,13.07,13.07,0,0,1,4-9.5A14.21,14.21,0,0,1,21.3,3a13.27,13.27,0,0,1,9.8,3.9,13.8,13.8,0,0,1,4.1,9.7,13.21,13.21,0,0,1-1.5,6.2v.1l-5,8.4,2.9,1.3A1,1,0,0,1,32.1,33.2Zm-.3-11.3A11.67,11.67,0,0,0,33,16.7a11.5,11.5,0,0,0-3.4-8.2,11.08,11.08,0,0,0-8.3-3.3A11.51,11.51,0,0,0,10,16.6a12.09,12.09,0,0,0,1.2,5.3l9.3,15.7a.94.94,0,0,0,.9.5,1.19,1.19,0,0,0,.9-.5ZM27.6,33.2l-3.2,5.4a3.25,3.25,0,0,1-5.6,0l-3.2-5.4-2.8,1.2L8.4,43.7l5-2.2a1.39,1.39,0,0,1,.9,0l7.3,3.2,7.3-3.2a1.39,1.39,0,0,1,.9,0l5,2.2-4.4-9.3Zm-11-16.5a5,5,0,0,1,5-5,5,5,0,0,1,0,10A5,5,0,0,1,16.6,16.7Zm7.7,0a2.8,2.8,0,0,0-5.6,0,2.73,2.73,0,0,0,2.8,2.8A2.86,2.86,0,0,0,24.3,16.7Z"/><path class="cls-6" d="M0,0H66V66H0Z"/></svg>