<svg 
 xmlns="http://www.w3.org/2000/svg"
 xmlns:xlink="http://www.w3.org/1999/xlink"
 width="66px" height="66px">
<defs>
<linearGradient id="PSgrad_0" x1="0%" x2="0%" y1="100%" y2="0%">
  <stop offset="0%" stop-color="rgb(255,255,255)" stop-opacity="1" />
  <stop offset="76%" stop-color="rgb(189,228,244)" stop-opacity="1" />
  <stop offset="100%" stop-color="rgb(123,200,233)" stop-opacity="1" />
</linearGradient>
<linearGradient id="PSgrad_1" x1="0%" x2="0%" y1="100%" y2="0%">
  <stop offset="0%" stop-color="rgb(123,200,233)" stop-opacity="1" />
  <stop offset="24%" stop-color="rgb(189,228,244)" stop-opacity="1" />
  <stop offset="100%" stop-color="rgb(255,255,255)" stop-opacity="1" />
</linearGradient>

</defs>
<path fill-rule="evenodd"  opacity="0.369" fill="rgb(255, 255, 255)"
 d="M41.500,21.000 C53.926,21.000 64.000,31.074 64.000,43.500 C64.000,55.926 53.926,66.000 41.500,66.000 C29.074,66.000 19.000,55.926 19.000,43.500 C19.000,31.074 29.074,21.000 41.500,21.000 Z"/>
<path fill="url(#PSgrad_0)"
 d="M41.500,21.000 C53.926,21.000 64.000,31.074 64.000,43.500 C64.000,55.926 53.926,66.000 41.500,66.000 C29.074,66.000 19.000,55.926 19.000,43.500 C19.000,31.074 29.074,21.000 41.500,21.000 Z"/>
<path fill-rule="evenodd"  opacity="0.588" fill="rgb(255, 255, 255)"
 d="M14.000,-0.000 C20.075,-0.000 25.000,4.925 25.000,11.000 C25.000,17.075 20.075,22.000 14.000,22.000 C7.925,22.000 3.000,17.075 3.000,11.000 C3.000,4.925 7.925,-0.000 14.000,-0.000 Z"/>
<path fill="url(#PSgrad_1)"
 d="M14.000,-0.000 C20.075,-0.000 25.000,4.925 25.000,11.000 C25.000,17.075 20.075,22.000 14.000,22.000 C7.925,22.000 3.000,17.075 3.000,11.000 C3.000,4.925 7.925,-0.000 14.000,-0.000 Z"/>
<path fill-rule="evenodd"  fill="rgb(0, 111, 235)"
 d="M32.117,33.178 L37.921,45.448 C38.115,45.859 38.033,46.346 37.716,46.671 C37.507,46.885 37.225,46.998 36.939,46.998 C36.790,46.998 36.639,46.967 36.497,46.904 L29.226,43.669 L21.955,46.904 C21.674,47.029 21.353,47.029 21.072,46.904 L13.801,43.669 L6.529,46.904 C6.114,47.088 5.628,46.996 5.311,46.671 C4.993,46.346 4.911,45.858 5.106,45.448 L10.909,33.178 C11.021,32.943 11.212,32.756 11.450,32.650 L14.354,31.359 L9.351,22.979 C9.339,22.959 9.328,22.938 9.317,22.917 C8.323,20.979 7.805,18.796 7.818,16.603 C7.839,13.015 9.254,9.626 11.802,7.059 C14.350,4.492 17.730,3.051 21.319,3.001 C25.016,2.949 28.500,4.349 31.130,6.941 C33.760,9.533 35.208,12.994 35.208,16.686 C35.208,18.881 34.704,20.977 33.709,22.918 C33.698,22.938 33.687,22.959 33.675,22.979 L28.672,31.359 L31.560,32.644 C31.800,32.746 32.001,32.934 32.117,33.178 ZM31.791,21.897 C32.617,20.274 33.036,18.522 33.036,16.686 C33.036,13.580 31.817,10.668 29.604,8.487 C27.392,6.306 24.459,5.130 21.350,5.172 C15.123,5.258 10.028,10.392 9.991,16.616 C9.980,18.476 10.399,20.253 11.235,21.897 L20.580,37.550 C20.866,38.028 21.328,38.079 21.513,38.079 C21.699,38.079 22.161,38.028 22.446,37.550 L31.791,21.897 ZM27.551,33.237 L24.312,38.662 C23.718,39.657 22.672,40.250 21.513,40.250 C20.354,40.250 19.308,39.657 18.714,38.662 L15.475,33.237 L12.702,34.470 L8.321,43.730 L13.358,41.489 C13.640,41.364 13.961,41.364 14.242,41.489 L21.513,44.724 L28.784,41.489 C29.065,41.364 29.387,41.364 29.668,41.489 L34.705,43.730 L30.325,34.471 L27.551,33.237 ZM16.556,16.686 C16.556,13.954 18.780,11.731 21.514,11.731 C24.248,11.731 26.471,13.954 26.471,16.686 C26.471,19.418 24.248,21.641 21.514,21.641 C18.780,21.641 16.556,19.418 16.556,16.686 ZM24.299,16.686 C24.299,15.151 23.049,13.902 21.514,13.902 C19.978,13.902 18.728,15.151 18.728,16.686 C18.728,18.221 19.978,19.469 21.514,19.469 C23.049,19.469 24.299,18.221 24.299,16.686 Z"/>
<path fill-rule="evenodd"  fill-opacity="0" fill="rgb(0, 111, 235)"
 d="M0.000,0.000 L66.000,0.000 L66.000,66.000 L0.000,66.000 L0.000,0.000 Z"/>
</svg>