<svg 
 xmlns="http://www.w3.org/2000/svg"
 xmlns:xlink="http://www.w3.org/1999/xlink"
 width="13px" height="18px">
<path fill-rule="evenodd"  fill="rgb(0, 155, 235)"
 d="M6.500,0.000 C2.916,0.000 -0.000,2.924 -0.000,6.519 C-0.000,10.980 5.817,17.528 6.064,17.805 C6.297,18.065 6.703,18.064 6.936,17.805 C7.183,17.528 13.000,10.980 13.000,6.519 C13.000,2.924 10.084,0.000 6.500,0.000 ZM6.500,9.799 C4.697,9.799 3.230,8.327 3.230,6.519 C3.230,4.710 4.697,3.239 6.500,3.239 C8.303,3.239 9.770,4.710 9.770,6.519 C9.770,8.327 8.303,9.799 6.500,9.799 Z"/>
</svg>