<?xml version="1.0" encoding="utf-8"?>
<!-- Generator: Adobe Illustrator 21.1.0, SVG Export Plug-In . SVG Version: 6.00 Build 0)  -->
<svg version="1.1" id="Слой_1" xmlns="http://www.w3.org/2000/svg" xmlns:xlink="http://www.w3.org/1999/xlink" x="0px" y="0px"
	 viewBox="0 0 66 66" style="enable-background:new 0 0 66 66;" xml:space="preserve">
<style type="text/css">
	.st0{opacity:0.369;fill:#FFFFFF;enable-background:new    ;}
	.st1{opacity:0.4;fill:url(#SVGID_1_);}
	.st2{opacity:0.588;fill:#FFFFFF;enable-background:new    ;}
	.st3{opacity:0.3;fill:url(#SVGID_2_);}
	.st4{fill:#006FEB;}
	.st5{fill:#006FEB;fill-opacity:0;}
</style>
<path class="st0" d="M41.5,21C53.9,21,64,31.1,64,43.5S53.9,66,41.5,66S19,55.9,19,43.5S29.1,21,41.5,21z"/>
<linearGradient id="SVGID_1_" gradientUnits="userSpaceOnUse" x1="-748.4778" y1="815.9778" x2="-748.4778" y2="816.9778" gradientTransform="matrix(45 0 0 -45 33723 36785)">
	<stop  offset="0" style="stop-color:#FFFFFF"/>
	<stop  offset="0.76" style="stop-color:#BDE4F4"/>
	<stop  offset="1" style="stop-color:#7BC8E9"/>
</linearGradient>
<path class="st1" d="M41.5,21C53.9,21,64,31.1,64,43.5S53.9,66,41.5,66S19,55.9,19,43.5S29.1,21,41.5,21z"/>
<path class="st2" d="M14,0c6.1,0,11,4.9,11,11s-4.9,11-11,11S3,17.1,3,11S7.9,0,14,0z"/>
<linearGradient id="SVGID_2_" gradientUnits="userSpaceOnUse" x1="-730.6818" y1="798.1818" x2="-730.6818" y2="799.1818" gradientTransform="matrix(22 0 0 -22 16089 17582)">
	<stop  offset="0" style="stop-color:#7BC8E9"/>
	<stop  offset="0.24" style="stop-color:#BDE4F4"/>
	<stop  offset="1" style="stop-color:#FFFFFF"/>
</linearGradient>
<path class="st3" d="M14,0c6.1,0,11,4.9,11,11s-4.9,11-11,11S3,17.1,3,11S7.9,0,14,0z"/>
<path class="st4" d="M32.1,33.2l5.8,12.3c0.2,0.4,0.1,0.9-0.2,1.2c-0.2,0.2-0.5,0.3-0.8,0.3c-0.1,0-0.3,0-0.4-0.1l-7.3-3.2L22,46.9
	c-0.3,0.1-0.6,0.1-0.9,0l-7.3-3.2l-7.3,3.2c-0.4,0.2-0.9,0.1-1.2-0.2c-0.3-0.3-0.4-0.8-0.2-1.2l5.8-12.3c0.1-0.2,0.3-0.4,0.5-0.5
	l2.9-1.3l-5-8.4c0,0,0,0,0-0.1c-1-1.9-1.5-4.1-1.5-6.3c0-3.6,1.4-7,4-9.5s5.9-4,9.5-4.1c3.7-0.1,7.2,1.3,9.8,3.9s4.1,6.1,4.1,9.7
	c0,2.2-0.5,4.3-1.5,6.2c0,0,0,0,0,0.1l-5,8.4l2.9,1.3C31.8,32.7,32,32.9,32.1,33.2z M31.8,21.9c0.8-1.6,1.2-3.4,1.2-5.2
	c0-3.1-1.2-6-3.4-8.2c-2.2-2.2-5.1-3.4-8.3-3.3C15.1,5.3,10,10.4,10,16.6c0,1.9,0.4,3.6,1.2,5.3l9.3,15.7c0.3,0.5,0.7,0.5,0.9,0.5
	c0.2,0,0.6-0.1,0.9-0.5L31.8,21.9z M27.6,33.2l-3.2,5.4c-0.6,1-1.6,1.6-2.8,1.6s-2.2-0.6-2.8-1.6l-3.2-5.4l-2.8,1.2l-4.4,9.3l5-2.2
	c0.3-0.1,0.6-0.1,0.9,0l7.3,3.2l7.3-3.2c0.3-0.1,0.6-0.1,0.9,0l5,2.2l-4.4-9.3L27.6,33.2z M16.6,16.7c0-2.7,2.2-5,5-5s5,2.2,5,5
	s-2.2,5-5,5S16.6,19.4,16.6,16.7z M24.3,16.7c0-1.5-1.2-2.8-2.8-2.8c-1.5,0-2.8,1.2-2.8,2.8s1.2,2.8,2.8,2.8
	C23,19.5,24.3,18.2,24.3,16.7z"/>
<path class="st5" d="M0,0h66v66H0V0z"/>
</svg>
