<svg id="Слой_1" data-name="Слой 1" xmlns="http://www.w3.org/2000/svg" viewBox="0 0 50 50"><defs><style>.cls-1{fill:#2182ee;fill-opacity:0;}.cls-2{fill:#11a2f6;}</style></defs><title>monitor</title><path class="cls-1" d="M0,0H50V50H0Z"/><path class="cls-2" d="M31,44.51H21.07V46a2.44,2.44,0,0,0,2.41,2.46h2.19a.76.76,0,0,1,.76.77.77.77,0,0,1-.76.78H7.33a.77.77,0,0,1-.76-.78.76.76,0,0,1,.76-.77H9.52A2.45,2.45,0,0,0,11.94,46V44.51H2a2,2,0,0,1-2-2V22a2,2,0,0,1,2-2H31a2,2,0,0,1,2,2V42.48A2,2,0,0,1,31,44.51ZM20.37,48.45A4,4,0,0,1,19.54,46V44.51H13.46V46a4,4,0,0,1-.83,2.46Zm-18.85-6A.48.48,0,0,0,2,43H31a.48.48,0,0,0,.47-.48V38.4h-30ZM31.48,22a.48.48,0,0,0-.47-.48H2a.48.48,0,0,0-.47.48V36.84h30ZM18.85,31.81a.76.76,0,0,1-.54.23.78.78,0,0,1-.54-.23.8.8,0,0,1,0-1.1l2.15-2.18a.75.75,0,0,1,1.07,0,.78.78,0,0,1,0,1.1Zm-6.42.12a.75.75,0,0,1-1.08,0,.8.8,0,0,1,0-1.1l5.38-5.48a.75.75,0,0,1,1.07,0,.78.78,0,0,1,0,1.1Zm4.07,9.58a.84.84,0,1,1,.82-.83A.83.83,0,0,1,16.5,41.51Z"/></svg>