<svg id="Слой_1" data-name="Слой 1" xmlns="http://www.w3.org/2000/svg" viewBox="0 0 50 50"><defs><style>.cls-1{fill:#2182ee;fill-opacity:0;}.cls-2{fill:#11a2f6;}</style></defs><title>mountain</title><path class="cls-1" d="M0,0H50V50H0Z"/><path class="cls-2" d="M48.83,49.42a1.21,1.21,0,0,1-1,.58H1.2A1.2,1.2,0,0,1,.14,48.23l6-11.29h0l4.41-8.27,2.63-4.91a1.19,1.19,0,0,1,.81-.61h.25a1.13,1.13,0,0,1,.32.05,1.19,1.19,0,0,1,.73.59l3.88,7.36,1.3-2.44h0l2.39-4.48,5.64-10.56A1.19,1.19,0,0,1,29.59,13h0a1.21,1.21,0,0,1,1.06.64l10.6,20.14a.72.72,0,1,1-1.27.67L38.68,32l-3.33,3.81h0a1.21,1.21,0,0,1-.9.41h0a1.2,1.2,0,0,1-.91-.43l-6-7.16-3.11,3.5A1.18,1.18,0,0,1,22.53,32l-1.29-1.7L20,32.65s8.3,15.8,8.32,15.91H47.41L42,38.22a.71.71,0,1,1,1.26-.67l5.63,10.69A1.21,1.21,0,0,1,48.83,49.42ZM27.49,27.06h0a1.2,1.2,0,0,1,.9.43l6,7.15,3.48-4.11L29.59,14.7,22.2,28.55,22,29l1.52,2,3.09-3.47A1.21,1.21,0,0,1,27.49,27.06ZM23.41,42.2,21.48,44a1.2,1.2,0,0,1-.81.32,1.18,1.18,0,0,1-.84-.35l-2-2a.72.72,0,0,1,0-1,.71.71,0,0,1,1,0l1.86,1.86,2-1.89L14.26,24.83,7.71,37.1l2.15,1.8,2.41-2.71a1.22,1.22,0,0,1,.86-.4,1.2,1.2,0,0,1,.88.35l1.72,1.71a.72.72,0,0,1,0,1,.71.71,0,0,1-1,0l-1.54-1.54L10.77,40a1.17,1.17,0,0,1-.89.41,1.21,1.21,0,0,1-.77-.29L7,38.4,1.59,48.56H26.76Z"/></svg>