<svg id="Слой_1" data-name="Слой 1" xmlns="http://www.w3.org/2000/svg" viewBox="0 0 50 50"><defs><style>.cls-1{fill:#2182ee;fill-opacity:0;}.cls-2{fill:#11a2f6;}</style></defs><title>parking</title><path class="cls-1" d="M0,0H50V50H0Z"/><path class="cls-2" d="M29,45a17,17,0,1,1,5-12A16.89,16.89,0,0,1,29,45ZM27.61,22.39a15,15,0,0,0-21.22,0A15,15,0,0,0,17,48,15,15,0,0,0,27.61,22.39ZM18.7,36.2H14.61v5.55h-2V24.25H18.7a5.89,5.89,0,0,1,5.87,5.87v.21A5.88,5.88,0,0,1,18.7,36.2Zm3.88-6.08a3.88,3.88,0,0,0-3.88-3.88H14.61v8H18.7a3.88,3.88,0,0,0,3.88-3.88Z"/></svg>