<svg 
 xmlns="http://www.w3.org/2000/svg"
 xmlns:xlink="http://www.w3.org/1999/xlink"
 width="25px" height="24px">
<path fill-rule="evenodd"  fill="rgb(144, 150, 158)"
 d="M24.117,24.000 L0.883,24.000 C0.390,24.000 0.000,23.607 0.000,23.110 C0.000,18.435 3.777,14.648 8.395,14.648 L16.605,14.648 C21.244,14.648 25.000,18.455 25.000,23.110 C25.000,23.607 24.610,24.000 24.117,24.000 ZM16.605,16.428 L8.395,16.428 C5.029,16.428 2.258,18.972 1.827,22.221 L23.173,22.221 C22.742,18.952 19.971,16.428 16.605,16.428 ZM12.459,13.469 C8.764,13.469 5.768,10.428 5.768,6.724 C5.768,3.021 8.764,-0.000 12.459,-0.000 C16.154,-0.000 19.150,3.000 19.150,6.724 C19.150,10.448 16.154,13.469 12.459,13.469 ZM12.459,1.759 C9.750,1.759 7.533,3.993 7.533,6.724 C7.533,9.455 9.750,11.690 12.459,11.690 C15.168,11.690 17.385,9.455 17.385,6.724 C17.385,3.993 15.168,1.759 12.459,1.759 Z"/>
</svg>