<svg 
 xmlns="http://www.w3.org/2000/svg"
 xmlns:xlink="http://www.w3.org/1999/xlink"
 width="57px" height="28px">
<path fill-rule="evenodd"  fill-opacity="0" fill="rgb(148, 8, 8)"
 d="M-0.000,-0.000 L57.000,-0.000 L57.000,28.000 L-0.000,28.000 L-0.000,-0.000 Z"/>
<path fill-rule="evenodd"  fill="rgb(144, 150, 158)"
 d="M32.118,27.000 L27.000,27.000 L27.000,25.221 L31.173,25.221 C30.758,22.073 28.167,19.640 24.971,19.462 C24.971,19.462 24.971,19.462 24.971,19.462 C24.971,19.462 24.971,19.462 24.971,19.462 C24.713,19.278 24.432,19.062 24.150,18.837 C24.129,18.820 24.108,18.804 24.087,18.786 C23.810,18.564 23.531,18.334 23.273,18.115 C23.269,18.112 23.266,18.108 23.262,18.105 C23.253,18.098 23.243,18.090 23.234,18.082 C23.055,17.930 22.885,17.782 22.731,17.648 C22.731,17.648 22.731,17.648 22.731,17.648 C22.731,17.648 22.731,17.648 22.731,17.648 L24.605,17.648 C29.244,17.648 33.000,21.455 33.000,26.110 C33.000,26.607 32.610,27.000 32.118,27.000 ZM22.000,16.272 L22.000,14.415 C23.956,13.756 25.385,11.910 25.385,9.724 C25.385,6.993 23.168,4.758 20.459,4.758 C20.367,4.758 20.281,4.781 20.191,4.786 L19.095,3.142 C19.535,3.050 19.991,3.000 20.459,3.000 C24.153,3.000 27.150,6.000 27.150,9.724 C27.150,12.911 24.949,15.567 22.000,16.272 Z"/>
<path fill-rule="evenodd"  fill="rgb(144, 150, 158)"
 d="M24.117,27.000 L0.883,27.000 C0.390,27.000 0.000,26.607 0.000,26.110 C0.000,21.435 3.777,17.648 8.395,17.648 L16.605,17.648 C21.244,17.648 25.000,21.455 25.000,26.110 C25.000,26.607 24.610,27.000 24.117,27.000 ZM16.605,19.427 L8.395,19.427 C5.029,19.427 2.258,21.972 1.827,25.221 L23.173,25.221 C22.742,21.952 19.971,19.427 16.605,19.427 ZM12.459,16.469 C8.764,16.469 5.768,13.428 5.768,9.724 C5.768,6.021 8.764,3.000 12.459,3.000 C16.153,3.000 19.150,6.000 19.150,9.724 C19.150,13.448 16.153,16.469 12.459,16.469 ZM12.459,4.758 C9.750,4.758 7.533,6.993 7.533,9.724 C7.533,12.455 9.750,14.690 12.459,14.690 C15.168,14.690 17.385,12.455 17.385,9.724 C17.385,6.993 15.168,4.758 12.459,4.758 Z"/>
</svg>