<svg 
 xmlns="http://www.w3.org/2000/svg"
 xmlns:xlink="http://www.w3.org/1999/xlink"
 width="57px" height="28px">
<path fill-rule="evenodd"  fill-opacity="0" fill="rgb(148, 8, 8)"
 d="M-0.000,-0.000 L57.000,-0.000 L57.000,28.000 L-0.000,28.000 L-0.000,-0.000 Z"/>
<path fill-rule="evenodd"  fill="rgb(144, 150, 158)"
 d="M24.117,26.000 L0.883,26.000 C0.390,26.000 -0.000,25.607 -0.000,25.111 C-0.000,20.434 3.777,16.648 8.395,16.648 L16.605,16.648 C21.244,16.648 25.000,20.455 25.000,25.111 C25.000,25.607 24.610,26.000 24.117,26.000 ZM16.605,18.428 L8.395,18.428 C5.029,18.428 2.258,20.973 1.827,24.221 L23.173,24.221 C22.742,20.951 19.971,18.428 16.605,18.428 ZM12.459,15.469 C8.764,15.469 5.768,12.427 5.768,8.724 C5.768,5.021 8.764,2.000 12.459,2.000 C16.154,2.000 19.150,5.000 19.150,8.724 C19.150,12.448 16.154,15.469 12.459,15.469 ZM12.459,3.759 C9.750,3.759 7.533,5.993 7.533,8.724 C7.533,11.455 9.750,13.690 12.459,13.690 C15.168,13.690 17.385,11.455 17.385,8.724 C17.385,5.993 15.168,3.759 12.459,3.759 Z"/>
</svg>