<?xml version="1.0" encoding="utf-8"?>
<!-- Generator: Adobe Illustrator 22.1.0, SVG Export Plug-In . SVG Version: 6.00 Build 0)  -->
<svg version="1.1" id="Layer_1" xmlns="http://www.w3.org/2000/svg" xmlns:xlink="http://www.w3.org/1999/xlink" x="0px" y="0px"
	 viewBox="0 0 30 30" style="enable-background:new 0 0 30 30;" xml:space="preserve">
<style type="text/css">
	.st0{fill:#C6C9CE;stroke:#C6C9CE;stroke-width:0.5;stroke-miterlimit:10;}
</style>
<g id="Forma_1">
	<path class="st0" d="M15,5.3C15,5.3,15,5.3,15,5.3c-1.4,0-2.8,0.6-3.8,1.6c-1,1-1.6,2.3-1.6,3.8c0,3,2.4,5.4,5.3,5.4c0,0,0,0,0,0
		c1.4,0,2.8-0.5,3.8-1.5c1-1,1.6-2.3,1.6-3.8C20.3,7.7,17.9,5.3,15,5.3z M18.1,13.7C17.3,14.5,16.2,15,15,15h0c-2.4,0-4.4-2-4.4-4.4
		c0-2.4,2-4.4,4.4-4.4c0,0,0,0,0,0c1.2,0,2.3,0.5,3.1,1.3c0.8,0.8,1.3,1.9,1.3,3.1C19.4,11.8,18.9,12.9,18.1,13.7z M18.4,17.5h-6.9
		c-3.7,0-6.8,3-6.8,6.8c0,0.1,0,0.2,0.1,0.3c0.1,0.1,0.2,0.1,0.3,0.1l0,0.2v-0.2h19.4c0,0,0,0,0,0c0.3,0,0.5-0.2,0.5-0.5
		C25.2,20.5,22.2,17.5,18.4,17.5z M5.8,23.7l0-0.3c0.4-2.9,2.8-5,5.7-5h6.9c2.9,0,5.4,2.2,5.7,5l0,0.3H5.8z"/>
</g>
</svg>
