<svg 
 xmlns="http://www.w3.org/2000/svg"
 xmlns:xlink="http://www.w3.org/1999/xlink"
 width="33px" height="24px">
<path fill-rule="evenodd"  fill="rgb(144, 150, 158)"
 d="M32.117,24.000 L8.883,24.000 C8.883,24.000 8.882,24.000 8.882,24.000 L12.000,24.000 L27.000,24.000 L27.000,22.221 L31.173,22.221 C30.758,19.073 28.167,16.640 24.971,16.462 C24.971,16.462 24.971,16.462 24.971,16.462 C24.713,16.278 24.432,16.062 24.150,15.838 C24.129,15.820 24.108,15.804 24.087,15.787 C23.810,15.564 23.531,15.334 23.273,15.115 C23.267,15.110 23.261,15.105 23.256,15.100 C23.249,15.094 23.241,15.088 23.234,15.082 C23.055,14.930 22.885,14.782 22.731,14.648 L24.605,14.648 C29.244,14.648 33.000,18.455 33.000,23.110 C33.000,23.607 32.610,24.000 32.117,24.000 ZM22.000,13.272 L22.000,11.415 C23.956,10.756 25.385,8.910 25.385,6.724 C25.385,3.993 23.168,1.759 20.459,1.759 C20.367,1.759 20.281,1.781 20.191,1.786 L19.095,0.142 C19.535,0.050 19.991,-0.000 20.459,-0.000 C24.153,-0.000 27.150,3.000 27.150,6.724 C27.150,9.911 24.949,12.567 22.000,13.272 Z"/>
<path fill-rule="evenodd"  fill="rgb(144, 150, 158)"
 d="M24.117,24.000 L0.883,24.000 C0.390,24.000 0.000,23.607 0.000,23.110 C0.000,18.435 3.777,14.648 8.395,14.648 L16.605,14.648 C21.244,14.648 25.000,18.455 25.000,23.110 C25.000,23.607 24.610,24.000 24.117,24.000 ZM16.605,16.428 L8.395,16.428 C5.029,16.428 2.258,18.972 1.827,22.221 L23.173,22.221 C22.742,18.952 19.971,16.428 16.605,16.428 ZM12.459,13.469 C8.764,13.469 5.768,10.428 5.768,6.724 C5.768,3.021 8.764,-0.000 12.459,-0.000 C16.154,-0.000 19.150,3.000 19.150,6.724 C19.150,10.448 16.154,13.469 12.459,13.469 ZM12.459,1.759 C9.750,1.759 7.533,3.993 7.533,6.724 C7.533,9.455 9.750,11.690 12.459,11.690 C15.168,11.690 17.385,9.455 17.385,6.724 C17.385,3.993 15.168,1.759 12.459,1.759 Z"/>
</svg>