<svg xmlns="http://www.w3.org/2000/svg" width="15" height="15" viewBox="0 0 15 15">
  <metadata><?xpacket begin="﻿" id="W5M0MpCehiHzreSzNTczkc9d"?>
<x:xmpmeta xmlns:x="adobe:ns:meta/" x:xmptk="Adobe XMP Core 5.6-c138 79.159824, 2016/09/14-01:09:01        ">
   <rdf:RDF xmlns:rdf="http://www.w3.org/1999/02/22-rdf-syntax-ns#">
      <rdf:Description rdf:about=""/>
   </rdf:RDF>
</x:xmpmeta>
                                                                                                    
                                                                                                    
                                                                                                    
                                                                                                    
                                                                                                    
                                                                                                    
                                                                                                    
                                                                                                    
                                                                                                    
                                                                                                    
                                                                                                    
                                                                                                    
                                                                                                    
                                                                                                    
                                                                                                    
                                                                                                    
                                                                                                    
                                                                                                    
                                                                                                    
                                                                                                    
                           
<?xpacket end="w"?></metadata>
<defs>
    <style>
      .cls-1 {
        fill: #009beb;
        fill-rule: evenodd;
      }
    </style>
  </defs>
  <path id="_-e-phone-b" data-name="-e-phone-b" class="cls-1" d="M105.661,418.87l-2.315-2.324a1.206,1.206,0,0,0-1.7.033l-1.166,1.17-0.231-.129a10.942,10.942,0,0,1-4.84-4.855l-0.126-.225,0.783-.784,0.385-.386a1.212,1.212,0,0,0,.031-1.707l-2.316-2.323a1.2,1.2,0,0,0-1.7.031l-0.653.659,0.018,0.018a3.78,3.78,0,0,0-.538.951,3.971,3.971,0,0,0-.239.965c-0.305,2.542.853,4.865,4,8.018,4.346,4.357,7.848,4.029,8,4.012a3.927,3.927,0,0,0,.965-0.243,3.747,3.747,0,0,0,.945-0.537l0.014,0.013,0.662-.65A1.213,1.213,0,0,0,105.661,418.87Z" transform="translate(-91 -407)"/>
</svg>
