<svg 
 xmlns="http://www.w3.org/2000/svg"
 xmlns:xlink="http://www.w3.org/1999/xlink"
 width="15px" height="15px">
<path fill-rule="evenodd"  fill="rgb(255, 255, 255)"
 d="M14.661,11.869 L12.346,9.547 C11.884,9.086 11.121,9.100 10.643,9.579 L9.476,10.749 C9.403,10.708 9.327,10.665 9.246,10.620 C8.510,10.211 7.501,9.650 6.440,8.585 C5.376,7.518 4.816,6.505 4.406,5.766 C4.363,5.688 4.322,5.612 4.281,5.540 L5.064,4.756 L5.449,4.369 C5.927,3.890 5.940,3.124 5.480,2.662 L3.164,0.339 C2.704,-0.122 1.940,-0.108 1.461,0.372 L0.809,1.030 L0.827,1.048 C0.608,1.328 0.425,1.651 0.289,1.999 C0.164,2.331 0.085,2.647 0.050,2.964 C-0.256,5.506 0.902,7.829 4.046,10.982 C8.392,15.339 11.894,15.010 12.045,14.995 C12.374,14.955 12.689,14.876 13.010,14.751 C13.355,14.616 13.676,14.433 13.955,14.214 L13.969,14.227 L14.631,13.577 C15.108,13.098 15.121,12.332 14.661,11.869 Z"/>
</svg>