<svg 
 xmlns="http://www.w3.org/2000/svg"
 xmlns:xlink="http://www.w3.org/1999/xlink"
 width="23px" height="23px">
<path fill-rule="evenodd"  fill="rgb(198, 201, 206)"
 d="M4.661,15.289 C6.938,18.001 9.679,20.136 12.808,21.647 C13.999,22.209 15.592,22.876 17.367,22.990 C17.477,22.995 17.582,23.000 17.692,23.000 C18.884,23.000 19.840,22.590 20.620,21.747 C20.625,21.742 20.635,21.732 20.639,21.723 C20.917,21.389 21.233,21.089 21.563,20.770 C21.788,20.555 22.017,20.331 22.237,20.102 C23.256,19.044 23.256,17.700 22.228,16.676 L19.352,13.811 C18.864,13.306 18.281,13.039 17.669,13.039 C17.056,13.039 16.468,13.306 15.965,13.807 L14.253,15.513 C14.095,15.422 13.932,15.341 13.779,15.265 C13.588,15.170 13.411,15.079 13.253,14.979 C11.693,13.993 10.277,12.706 8.923,11.052 C8.239,10.189 7.780,9.465 7.460,8.726 C7.909,8.321 8.330,7.897 8.737,7.482 C8.880,7.335 9.029,7.187 9.177,7.039 C9.694,6.524 9.971,5.929 9.971,5.323 C9.971,4.718 9.698,4.122 9.177,3.608 L7.751,2.188 C7.584,2.021 7.426,1.859 7.263,1.692 C6.948,1.368 6.618,1.034 6.292,0.734 C5.800,0.253 5.221,0.000 4.608,0.000 C4.001,0.000 3.417,0.253 2.905,0.739 L1.116,2.521 C0.465,3.169 0.097,3.956 0.021,4.866 C-0.070,6.005 0.140,7.215 0.685,8.679 C1.523,10.942 2.786,13.044 4.661,15.289 ZM1.188,4.966 C1.245,4.332 1.489,3.803 1.948,3.346 L3.728,1.573 C4.006,1.306 4.312,1.168 4.608,1.168 C4.900,1.168 5.197,1.306 5.469,1.582 C5.790,1.878 6.091,2.188 6.417,2.516 C6.579,2.683 6.747,2.850 6.914,3.022 L8.340,4.442 C8.636,4.737 8.789,5.038 8.789,5.333 C8.789,5.628 8.636,5.929 8.340,6.224 C8.191,6.372 8.043,6.524 7.895,6.672 C7.450,7.120 7.034,7.544 6.575,7.949 C6.565,7.959 6.560,7.964 6.551,7.973 C6.154,8.369 6.216,8.745 6.311,9.031 C6.316,9.046 6.321,9.055 6.326,9.069 C6.694,9.951 7.206,10.790 8.005,11.791 C9.440,13.554 10.952,14.922 12.617,15.975 C12.822,16.109 13.042,16.213 13.248,16.318 C13.440,16.414 13.617,16.504 13.774,16.604 C13.793,16.614 13.808,16.623 13.827,16.633 C13.985,16.714 14.138,16.752 14.291,16.752 C14.674,16.752 14.923,16.509 15.004,16.428 L16.793,14.645 C17.071,14.369 17.372,14.221 17.669,14.221 C18.032,14.221 18.329,14.445 18.515,14.645 L21.400,17.514 C21.974,18.086 21.969,18.706 21.386,19.311 C21.185,19.526 20.974,19.731 20.749,19.945 C20.415,20.269 20.065,20.603 19.750,20.979 C19.199,21.570 18.544,21.847 17.697,21.847 C17.616,21.847 17.530,21.842 17.448,21.837 C15.879,21.737 14.420,21.127 13.325,20.608 C10.349,19.173 7.737,17.138 5.570,14.555 C3.785,12.415 2.585,10.423 1.791,8.288 C1.298,6.977 1.111,5.924 1.188,4.966 Z"/>
</svg>