<svg 
 xmlns="http://www.w3.org/2000/svg"
 xmlns:xlink="http://www.w3.org/1999/xlink"
 width="30px" height="30px">
<path fill-rule="evenodd"  fill-opacity="0" fill="rgb(198, 201, 206)"
 d="M-0.000,-0.000 L30.000,-0.000 L30.000,30.000 L-0.000,30.000 L-0.000,-0.000 Z"/>
<path fill-rule="evenodd"  fill="rgb(198, 201, 206)"
 d="M8.661,19.289 C10.938,22.000 13.679,24.135 16.808,25.647 C17.999,26.209 19.592,26.876 21.367,26.990 C21.477,26.995 21.582,27.000 21.692,27.000 C22.884,27.000 23.840,26.590 24.620,25.747 C24.625,25.742 24.635,25.732 24.639,25.723 C24.917,25.389 25.233,25.089 25.563,24.770 C25.787,24.555 26.017,24.331 26.237,24.103 C27.256,23.044 27.256,21.701 26.228,20.676 L23.352,17.811 C22.865,17.306 22.281,17.039 21.669,17.039 C21.056,17.039 20.468,17.306 19.965,17.807 L18.253,19.513 C18.095,19.422 17.932,19.341 17.779,19.265 C17.588,19.170 17.411,19.079 17.253,18.979 C15.693,17.992 14.277,16.706 12.923,15.052 C12.239,14.189 11.780,13.465 11.460,12.726 C11.909,12.321 12.330,11.897 12.737,11.482 C12.880,11.335 13.029,11.187 13.177,11.039 C13.694,10.524 13.971,9.929 13.971,9.324 C13.971,8.718 13.698,8.122 13.177,7.608 L11.751,6.188 C11.584,6.021 11.426,5.859 11.264,5.692 C10.948,5.368 10.618,5.034 10.292,4.734 C9.800,4.253 9.221,4.000 8.608,4.000 C8.001,4.000 7.417,4.253 6.905,4.739 L5.116,6.521 C4.465,7.169 4.097,7.956 4.021,8.866 C3.930,10.005 4.140,11.215 4.685,12.679 C5.523,14.942 6.786,17.044 8.661,19.289 ZM5.188,8.966 C5.245,8.332 5.489,7.803 5.948,7.346 L7.728,5.573 C8.005,5.306 8.312,5.168 8.608,5.168 C8.900,5.168 9.197,5.306 9.469,5.582 C9.790,5.878 10.091,6.188 10.417,6.516 C10.579,6.683 10.747,6.850 10.914,7.022 L12.340,8.442 C12.636,8.737 12.789,9.038 12.789,9.333 C12.789,9.629 12.636,9.929 12.340,10.224 C12.191,10.372 12.043,10.524 11.895,10.672 C11.450,11.120 11.034,11.545 10.575,11.949 C10.565,11.959 10.560,11.964 10.551,11.973 C10.154,12.369 10.216,12.745 10.311,13.031 C10.316,13.046 10.321,13.055 10.326,13.069 C10.694,13.951 11.206,14.790 12.005,15.791 C13.440,17.554 14.952,18.922 16.617,19.975 C16.822,20.109 17.043,20.213 17.248,20.318 C17.440,20.414 17.616,20.504 17.774,20.604 C17.793,20.614 17.808,20.623 17.827,20.633 C17.985,20.714 18.138,20.752 18.291,20.752 C18.674,20.752 18.922,20.509 19.004,20.428 L20.793,18.645 C21.071,18.369 21.372,18.221 21.669,18.221 C22.032,18.221 22.329,18.445 22.515,18.645 L25.400,21.514 C25.974,22.087 25.969,22.706 25.386,23.311 C25.185,23.526 24.974,23.731 24.749,23.945 C24.415,24.269 24.065,24.603 23.749,24.979 C23.199,25.570 22.544,25.847 21.697,25.847 C21.616,25.847 21.530,25.842 21.449,25.837 C19.879,25.737 18.420,25.127 17.325,24.608 C14.349,23.173 11.737,21.138 9.570,18.555 C7.785,16.415 6.585,14.423 5.791,12.288 C5.298,10.977 5.111,9.924 5.188,8.966 Z"/>
</svg>