<?xml version="1.0" encoding="utf-8"?>
<!-- Generator: Adobe Illustrator 22.1.0, SVG Export Plug-In . SVG Version: 6.00 Build 0)  -->
<svg version="1.1" id="Слой_1" xmlns="http://www.w3.org/2000/svg" xmlns:xlink="http://www.w3.org/1999/xlink" x="0px" y="0px"
	 viewBox="0 0 50 50" style="enable-background:new 0 0 50 50;" xml:space="preserve">
<style type="text/css">
	.st0{fill:#2182EE;fill-opacity:0;}
	.st1{fill:#11A2F6;}
</style>
<title>plant</title>
<path class="st0" d="M0,0h50v50H0V0z"/>
<path class="st1" d="M25,34.8v5h-1.7L22.5,50H2.5L1.7,39.8H0v-5h11.7v-3.3H5.8c-3.2,0-5.8-2.6-5.8-5.8v-2.5h7.5
	c1.6,0,3.1,0.6,4.2,1.8v-3.9L9.6,19c-2.9-2.9-2.9-7.6,0-10.5c0,0,0,0,0,0l2.9-2.9l2.9,2.9c2.9,2.9,2.9,7.6,0,10.5c0,0,0,0,0,0
	l-2.1,2.1v1.4c1.1-1.1,2.6-1.7,4.2-1.7H25v2.5c0,3.2-2.6,5.8-5.8,5.8h-5.8v5.8H25z M4.1,48.4h16.8l0.7-8.6H3.4L4.1,48.4z M7.5,24.9
	H1.7v0.8c0,2.3,1.9,4.1,4.2,4.1h5.8V29C11.7,26.7,9.8,24.9,7.5,24.9C7.5,24.9,7.5,24.9,7.5,24.9z M14.3,17.8c2.3-2.2,2.3-5.9,0-8.2
	c0,0,0,0,0,0l-1.8-1.7l-1.8,1.7c-2.3,2.2-2.3,5.9,0,8.1c0,0,0,0,0,0l0.9,0.9v-5.4h1.7v5.4L14.3,17.8z M19.2,27.4
	c2.3,0,4.2-1.8,4.2-4.1v-0.8h-5.8c-2.3,0-4.2,1.8-4.2,4.1v0.8H19.2z M1.7,36.5v1.6h21.7v-1.6H1.7z M18.3,43.1H20v1.6h-1.7V43.1z
	 M18.3,40.6H20v1.7h-1.7V40.6z M15.8,40.6h1.7v1.7h-1.7L15.8,40.6z"/>
</svg>
