<svg 
 xmlns="http://www.w3.org/2000/svg"
 xmlns:xlink="http://www.w3.org/1999/xlink"
 width="50px" height="50px">
<path fill-rule="evenodd"  fill-opacity="0" fill="rgb(33, 130, 238)"
 d="M0.000,0.000 L50.000,0.000 L50.000,50.000 L0.000,50.000 L0.000,0.000 Z"/>
<path fill-rule="evenodd"  fill="rgb(0, 111, 235)"
 d="M27.000,33.591 L27.000,38.943 L25.151,38.943 L24.251,50.000 L2.749,50.000 L1.849,38.943 L-0.000,38.943 L-0.000,33.591 L12.600,33.591 L12.600,30.023 L6.300,30.023 C2.823,30.018 0.005,27.225 -0.000,23.778 L-0.000,21.102 L8.100,21.102 C9.795,21.102 11.418,21.781 12.600,22.985 L12.600,18.770 L10.319,16.508 C7.161,13.370 7.161,8.291 10.319,5.153 L13.500,2.000 L16.682,5.153 C19.839,8.291 19.839,13.370 16.682,16.508 L14.400,18.770 L14.400,20.309 C15.582,19.105 17.205,18.426 18.900,18.426 L27.000,18.426 L27.000,21.102 C26.995,24.549 24.177,27.342 20.700,27.347 L14.400,27.347 L14.400,33.591 L27.000,33.591 ZM4.451,48.216 L22.549,48.216 L23.349,38.943 L3.651,38.943 L4.451,48.216 ZM8.100,22.886 L1.800,22.886 L1.800,23.778 C1.803,26.240 3.816,28.236 6.300,28.239 L12.600,28.239 L12.600,27.347 C12.597,24.884 10.584,22.889 8.100,22.886 ZM15.409,15.246 C17.865,12.805 17.865,8.855 15.409,6.415 L13.500,4.523 L11.591,6.415 C9.134,8.855 9.134,12.806 11.591,15.247 L12.600,16.247 L12.600,10.398 L14.400,10.398 L14.400,16.247 L15.409,15.246 ZM20.700,25.562 C23.184,25.560 25.197,23.564 25.200,21.102 L25.200,20.210 L18.900,20.210 C16.416,20.213 14.403,22.208 14.400,24.670 L14.400,25.562 L20.700,25.562 ZM1.800,35.375 L1.800,37.159 L25.200,37.159 L25.200,35.375 L1.800,35.375 ZM19.800,42.511 L21.600,42.511 L21.600,44.295 L19.800,44.295 L19.800,42.511 ZM19.800,39.835 L21.600,39.835 L21.600,41.619 L19.800,41.619 L19.800,39.835 ZM17.100,39.835 L18.900,39.835 L18.900,41.619 L17.100,41.619 L17.100,39.835 Z"/>
</svg>