<svg id="Слой_1" data-name="Слой 1" xmlns="http://www.w3.org/2000/svg" viewBox="0 0 50 50"><defs><style>.cls-1{fill:#2182ee;fill-opacity:0;}.cls-2{fill:#11a2f6;}</style></defs><title>sofa</title><path class="cls-1" d="M0,0H50V50H0Z" transform="translate(0)"/><path class="cls-2" d="M39.83,29a4.29,4.29,0,0,0-2.22-1.13,5.05,5.05,0,0,0-1.69-.08C33.65,22.55,27.58,19,20.5,19c-6.67,0-12.57,3.58-15,8.87a4.94,4.94,0,0,0-2.13,0A4.29,4.29,0,0,0,1.18,29,4.11,4.11,0,0,0,.05,32.42a4.28,4.28,0,0,0,3.36,3.39,3.52,3.52,0,0,0,1.48,0l.12,0c.14.24.6,1.5-.51,7a1,1,0,0,0,0,.43c.65,2.07,1.7,3.09,3.42,3.28h.1v2.66a.89.89,0,0,0,1.77,0V46.46H31.18v2.66a.89.89,0,0,0,1.78,0V46.46h.1c1.72-.19,2.78-1.21,3.42-3.28a1,1,0,0,0,0-.43c-1.11-5.46-.65-6.73-.51-7l.12,0a3.47,3.47,0,0,0,1.47,0A4.3,4.3,0,0,0,41,32.42,4.19,4.19,0,0,0,39.83,29ZM20.5,20.77c6.29,0,11.67,3.05,13.72,7.57a8.61,8.61,0,0,0-.87.56,8.09,8.09,0,0,0-2,2,8.94,8.94,0,0,0-1,2,19.32,19.32,0,0,0-.93,5.61H11.59a19.66,19.66,0,0,0-.93-5.61,8.56,8.56,0,0,0-1-2,7.88,7.88,0,0,0-2-2c-.16-.12-.33-.23-.5-.34C9.29,23.91,14.55,20.77,20.5,20.77ZM39.21,32.15a2.54,2.54,0,0,1-2,1.92,1.67,1.67,0,0,1-.77,0,1.8,1.8,0,0,0-1.19.08c-1.49.67-1.65,3.2-.55,8.72-.56,1.64-1.27,1.77-1.8,1.83H8.09c-.53-.06-1.25-.19-1.8-1.83,1.1-5.52.94-8.05-.55-8.72a1.93,1.93,0,0,0-1.19-.08,1.67,1.67,0,0,1-.77,0,2.55,2.55,0,0,1-2-1.92,2.45,2.45,0,0,1,.63-1.9,2.46,2.46,0,0,1,1.34-.65,3,3,0,0,1,1.39,0,4,4,0,0,1,1.47.74A6.56,6.56,0,0,1,8.2,31.89,7.18,7.18,0,0,1,9,33.46a19.09,19.09,0,0,1,.84,5.9.89.89,0,0,0,.89.88H30.28a.89.89,0,0,0,.89-.88A19.11,19.11,0,0,1,32,33.45a7.66,7.66,0,0,1,.78-1.57,6.56,6.56,0,0,1,1.56-1.55,4,4,0,0,1,1.46-.74,3.3,3.3,0,0,1,1.4,0,2.29,2.29,0,0,1,2,2.56Z" transform="translate(0)"/></svg>