<svg 
 xmlns="http://www.w3.org/2000/svg"
 xmlns:xlink="http://www.w3.org/1999/xlink"
 width="57px" height="28px">
<path fill-rule="evenodd"  fill-opacity="0" fill="rgb(148, 8, 8)"
 d="M-0.000,-0.000 L57.000,-0.000 L57.000,28.000 L-0.000,28.000 L-0.000,-0.000 Z"/>
<path fill-rule="evenodd"  fill="rgb(144, 150, 158)"
 d="M23.010,10.854 L23.010,10.810 L23.010,4.120 C23.010,1.108 20.905,0.000 18.932,0.000 L7.937,0.000 C5.964,0.000 3.859,1.063 3.859,4.120 L3.859,10.810 L3.859,10.854 C1.886,11.076 0.000,12.405 0.000,15.462 L0.000,20.690 C0.000,21.576 0.702,22.285 1.579,22.285 L2.105,22.285 L2.105,26.405 C2.105,27.291 2.806,28.000 3.684,28.000 L5.174,28.000 C6.051,28.000 6.753,27.291 6.753,26.405 L6.753,22.240 L20.247,22.240 L20.247,26.405 C20.247,27.291 20.949,28.000 21.826,28.000 L23.317,28.000 C24.194,28.000 24.895,27.291 24.895,26.405 L24.895,22.240 L25.421,22.240 C26.298,22.240 27.000,21.532 27.000,20.646 L27.000,15.462 C26.869,12.405 24.983,11.076 23.010,10.854 ZM5.350,4.120 L5.438,4.120 C5.438,2.038 6.797,1.595 7.937,1.595 L18.932,1.595 C20.072,1.595 21.431,2.038 21.431,4.120 L21.431,10.810 L19.601,10.810 L19.601,7.000 C19.601,6.114 18.899,5.405 18.023,5.405 L8.375,5.405 C7.498,5.405 6.797,6.114 6.797,7.000 L6.797,10.810 L5.350,10.810 L5.350,4.120 ZM18.110,7.000 L18.110,10.810 L8.463,10.810 L8.463,7.000 L18.110,7.000 ZM5.131,26.405 L3.640,26.405 L3.640,22.240 L5.131,22.240 L5.131,26.405 ZM23.229,26.405 L21.738,26.405 L21.738,22.240 L23.229,22.240 L23.229,26.405 ZM25.290,20.690 L23.229,20.690 L21.738,20.690 L5.131,20.690 L3.640,20.690 L1.535,20.690 L1.535,18.342 L25.290,18.342 L25.290,20.690 ZM25.290,16.747 L1.535,16.747 L1.535,15.462 C1.535,12.804 3.464,12.405 4.561,12.405 L21.431,12.405 L22.264,12.405 C23.404,12.405 25.290,12.804 25.290,15.462 L25.290,16.747 L25.290,16.747 Z"/>
<path fill-rule="evenodd"  fill="rgb(144, 150, 158)"
 d="M53.010,10.854 L53.010,10.810 L53.010,4.120 C53.010,1.108 50.905,0.000 48.932,0.000 L37.937,0.000 C35.964,0.000 33.859,1.063 33.859,4.120 L33.859,10.810 L33.859,10.854 C31.886,11.076 30.000,12.405 30.000,15.462 L30.000,20.690 C30.000,21.576 30.702,22.285 31.579,22.285 L32.105,22.285 L32.105,26.405 C32.105,27.291 32.806,28.000 33.683,28.000 L35.174,28.000 C36.051,28.000 36.753,27.291 36.753,26.405 L36.753,22.240 L50.247,22.240 L50.247,26.405 C50.247,27.291 50.949,28.000 51.826,28.000 L53.317,28.000 C54.194,28.000 54.895,27.291 54.895,26.405 L54.895,22.240 L55.421,22.240 C56.298,22.240 57.000,21.532 57.000,20.646 L57.000,15.462 C56.868,12.405 54.983,11.076 53.010,10.854 ZM35.350,4.120 L35.438,4.120 C35.438,2.038 36.797,1.595 37.937,1.595 L48.932,1.595 C50.072,1.595 51.431,2.038 51.431,4.120 L51.431,10.810 L49.601,10.810 L49.601,7.000 C49.601,6.114 48.900,5.405 48.023,5.405 L38.375,5.405 C37.498,5.405 36.797,6.114 36.797,7.000 L36.797,10.810 L35.350,10.810 L35.350,4.120 ZM48.110,7.000 L48.110,10.810 L38.463,10.810 L38.463,7.000 L48.110,7.000 ZM35.131,26.405 L33.640,26.405 L33.640,22.240 L35.131,22.240 L35.131,26.405 ZM53.229,26.405 L51.738,26.405 L51.738,22.240 L53.229,22.240 L53.229,26.405 ZM55.290,20.690 L53.229,20.690 L51.738,20.690 L35.131,20.690 L33.640,20.690 L31.535,20.690 L31.535,18.342 L55.290,18.342 L55.290,20.690 ZM55.290,16.747 L31.535,16.747 L31.535,15.462 C31.535,12.804 33.464,12.405 34.560,12.405 L51.431,12.405 L52.264,12.405 C53.404,12.405 55.290,12.804 55.290,15.462 L55.290,16.747 L55.290,16.747 Z"/>
</svg>