<?xml version="1.0" encoding="utf-8"?>
<!-- Generator: Adobe Illustrator 22.1.0, SVG Export Plug-In . SVG Version: 6.00 Build 0)  -->
<svg version="1.1" id="Слой_1" xmlns="http://www.w3.org/2000/svg" xmlns:xlink="http://www.w3.org/1999/xlink" x="0px" y="0px"
	 viewBox="0 0 50 50" style="enable-background:new 0 0 50 50;" xml:space="preserve">
<style type="text/css">
	.st0{fill:#2182EE;fill-opacity:0;}
	.st1{fill:#11A2F6;}
</style>
<path class="st0" d="M0,0h50v50H0V0z"/>
<path class="st1" d="M32.5,43.3c-0.9-0.9-2.4-0.9-3.3,0c-1.5,1.5-3.9,1.5-5.4,0c-0.9-0.9-2.4-0.9-3.3,0c-1.5,1.5-3.9,1.5-5.4,0
	c-0.9-0.9-2.4-0.9-3.3,0c-1.5,1.5-3.9,1.5-5.4,0c-0.9-0.9-2.4-0.9-3.3,0L1,45.4l-1-1l2.2-2.1c0,0,0,0,0,0c1.5-1.5,3.9-1.5,5.4,0
	c0.9,0.9,2.4,0.9,3.3,0l0,0c1.5-1.5,3.9-1.5,5.4,0c0.9,0.9,2.4,0.9,3.3,0l0,0c1.5-1.5,3.9-1.5,5.4,0c0.9,0.9,2.4,0.9,3.3,0l0,0
	c1.5-1.5,3.9-1.5,5.3,0c0.9,0.9,2.4,0.9,3.3,0l2.2-2.1l1,1l-2.2,2.1C36.4,44.7,34,44.7,32.5,43.3z M27.4,36.2l3.2,3.2l-1,1l-2.7-2.7
	l-2.7,2.7l-1-1l3.2-3.2C26.6,35.9,27.1,35.9,27.4,36.2z M28.9,34.7l-9.7-9.6c0,0,0,0,0,0c-0.9-0.9-0.9-2.3,0-3.2l5.7-5.7
	c0.4-0.4,0.4-1.1,0-1.5c-0.4-0.4-1.1-0.4-1.5,0l-5.8,5.8c-1.7,1.7-1.7,4.3,0,6l2,2c0.3,0.3,0.3,0.7,0,1L8.2,40.6l-1-1L18,28.9
	l-1.5-1.4c-2.2-2.2-2.2-5.8,0-8l5.8-5.8c1-0.9,2.6-0.9,3.5,0c1,1,1,2.5,0,3.5l-5.7,5.7c-0.3,0.3-0.3,0.9,0,1.2l9.7,9.6l6.5,6.4l-1,1
	L28.9,34.7z M30.1,29.9c-2.4,0-4.3-1.9-4.3-4.3c0-2.4,1.9-4.3,4.3-4.3s4.3,1.9,4.3,4.3S32.5,29.9,30.1,29.9z M30.1,22.8
	c-1.6,0-2.9,1.3-2.9,2.9c0,1.6,1.3,2.9,2.9,2.9c1.6,0,2.9-1.3,2.9-2.9C33,24.1,31.7,22.8,30.1,22.8z M2.2,46.6
	c1.5-1.5,3.9-1.5,5.4,0c0.9,0.9,2.4,0.9,3.3,0c0,0,0,0,0,0c1.5-1.5,3.9-1.5,5.4,0c0.9,0.9,2.4,0.9,3.3,0c0,0,0,0,0,0
	c1.5-1.5,3.9-1.5,5.4,0c0.9,0.9,2.4,0.9,3.3,0c0,0,0,0,0,0c1.5-1.5,3.9-1.5,5.3,0c0.9,0.9,2.4,0.9,3.3,0l2.2-2.1l1,1l-2.2,2.1
	c-1.5,1.5-3.9,1.5-5.4,0c-0.9-0.9-2.4-0.9-3.3,0c-1.5,1.5-3.9,1.5-5.4,0c-0.9-0.9-2.4-0.9-3.3,0c-1.5,1.5-3.9,1.5-5.4,0
	c-0.9-0.9-2.4-0.9-3.3,0C10.4,49,8,49,6.5,47.6c-0.9-0.9-2.4-0.9-3.3,0L1,49.7l-1-1L2.2,46.6C2.2,46.6,2.2,46.6,2.2,46.6z"/>
</svg>
