<svg 
 xmlns="http://www.w3.org/2000/svg"
 xmlns:xlink="http://www.w3.org/1999/xlink"
 width="28px" height="17px">
<path fill-rule="evenodd"  opacity="0.902" fill="rgb(34, 32, 32)"
 d="M27.854,15.046 C27.821,14.971 27.790,14.908 27.761,14.858 C27.287,13.954 26.381,12.844 25.045,11.529 L25.016,11.499 L25.002,11.484 L24.988,11.469 L24.973,11.469 C24.366,10.856 23.982,10.445 23.821,10.234 C23.527,9.832 23.461,9.426 23.622,9.014 C23.735,8.702 24.163,8.045 24.902,7.041 C25.291,6.509 25.599,6.082 25.826,5.760 C27.467,3.450 28.178,1.974 27.960,1.333 L27.875,1.182 C27.818,1.091 27.671,1.009 27.435,0.933 C27.197,0.858 26.894,0.846 26.524,0.896 L22.428,0.926 C22.361,0.901 22.267,0.903 22.143,0.933 C22.020,0.963 21.958,0.978 21.958,0.978 L21.887,1.016 L21.830,1.062 C21.783,1.091 21.731,1.144 21.674,1.219 C21.617,1.294 21.570,1.383 21.532,1.483 C21.086,2.698 20.579,3.828 20.010,4.872 C19.659,5.494 19.337,6.034 19.043,6.491 C18.749,6.948 18.502,7.284 18.303,7.501 C18.104,7.716 17.924,7.889 17.763,8.020 C17.601,8.151 17.478,8.206 17.393,8.186 C17.308,8.166 17.227,8.145 17.151,8.126 C17.018,8.035 16.911,7.912 16.831,7.756 C16.750,7.601 16.696,7.405 16.667,7.168 C16.639,6.933 16.622,6.730 16.618,6.559 C16.613,6.388 16.615,6.147 16.625,5.836 C16.635,5.524 16.639,5.314 16.639,5.203 C16.639,4.822 16.646,4.407 16.660,3.961 C16.675,3.514 16.686,3.160 16.696,2.899 C16.705,2.638 16.710,2.361 16.710,2.070 C16.710,1.779 16.693,1.551 16.660,1.385 C16.628,1.219 16.577,1.059 16.511,0.903 C16.445,0.747 16.347,0.627 16.220,0.541 C16.092,0.456 15.932,0.388 15.743,0.338 C15.241,0.218 14.601,0.152 13.823,0.142 C12.059,0.123 10.926,0.243 10.423,0.504 C10.224,0.614 10.044,0.765 9.883,0.956 C9.712,1.177 9.688,1.297 9.812,1.317 C10.381,1.407 10.784,1.623 11.021,1.965 L11.106,2.146 C11.172,2.276 11.239,2.507 11.305,2.838 C11.371,3.170 11.414,3.536 11.433,3.938 C11.480,4.671 11.480,5.299 11.433,5.820 C11.386,6.343 11.341,6.750 11.298,7.041 C11.255,7.332 11.191,7.568 11.106,7.748 C11.021,7.930 10.964,8.040 10.935,8.080 C10.907,8.120 10.883,8.145 10.864,8.155 C10.741,8.205 10.613,8.231 10.480,8.231 C10.347,8.231 10.186,8.160 9.997,8.020 C9.807,7.879 9.610,7.685 9.406,7.440 C9.202,7.194 8.973,6.850 8.716,6.408 C8.461,5.966 8.195,5.444 7.920,4.841 L7.693,4.404 C7.550,4.124 7.356,3.714 7.109,3.177 C6.863,2.640 6.645,2.120 6.455,1.618 C6.379,1.407 6.266,1.247 6.114,1.136 L6.042,1.091 C5.995,1.051 5.919,1.009 5.815,0.963 C5.711,0.918 5.602,0.885 5.488,0.865 L1.591,0.895 C1.192,0.895 0.922,0.990 0.780,1.181 L0.723,1.271 C0.694,1.321 0.680,1.402 0.680,1.512 C0.680,1.623 0.709,1.759 0.766,1.919 C1.335,3.336 1.953,4.701 2.622,6.016 C3.290,7.331 3.871,8.391 4.364,9.194 C4.857,9.997 5.360,10.755 5.872,11.468 C6.384,12.181 6.723,12.638 6.889,12.839 C7.054,13.040 7.185,13.190 7.280,13.291 L7.635,13.652 C7.863,13.893 8.197,14.182 8.638,14.519 C9.079,14.855 9.567,15.186 10.103,15.513 C10.639,15.839 11.263,16.105 11.974,16.311 C12.685,16.517 13.377,16.599 14.050,16.560 L15.686,16.560 C16.018,16.529 16.269,16.419 16.440,16.228 L16.496,16.153 C16.535,16.093 16.570,16.000 16.603,15.874 C16.636,15.749 16.653,15.610 16.653,15.460 C16.643,15.029 16.674,14.640 16.745,14.293 C16.816,13.947 16.897,13.686 16.987,13.510 C17.077,13.334 17.179,13.186 17.293,13.066 C17.407,12.945 17.488,12.872 17.535,12.847 C17.582,12.822 17.620,12.805 17.649,12.795 C17.876,12.714 18.144,12.792 18.452,13.028 C18.761,13.264 19.050,13.556 19.320,13.902 C19.590,14.248 19.915,14.637 20.294,15.070 C20.674,15.501 21.006,15.822 21.290,16.033 L21.574,16.214 C21.764,16.334 22.011,16.445 22.314,16.545 C22.617,16.646 22.883,16.671 23.111,16.620 L26.752,16.560 C27.112,16.560 27.392,16.497 27.591,16.372 C27.790,16.247 27.908,16.108 27.946,15.958 C27.984,15.807 27.986,15.636 27.954,15.445 C27.920,15.255 27.887,15.122 27.854,15.046 Z"/>
</svg>