<svg xmlns="http://www.w3.org/2000/svg" viewBox="0 0 23.53 7.82"><defs><style>.cls-1{opacity:0.49;}.cls-2{fill:#009beb;}.cls-3{opacity:0.39;}</style></defs><title>wave</title><g id="Layer_2" data-name="Layer 2"><g id="Layer_1-2" data-name="Layer 1"><g class="cls-1"><path class="cls-2" d="M23,3.82,20.37,1.19a.56.56,0,0,0-.79,0l-2,2a1.3,1.3,0,0,1-.92.38h0a1.34,1.34,0,0,1-.93-.38l-2-2a.57.57,0,0,0-.8,0l-2,2a1.3,1.3,0,0,1-.92.38h0a1.29,1.29,0,0,1-.92-.39l-2-2A.57.57,0,0,0,6.84,1h0a.57.57,0,0,0-.39.16l-2,2a1.32,1.32,0,0,1-1.86,0L0,.53.53,0,3.15,2.63a.59.59,0,0,0,.8,0l2-2A1.32,1.32,0,0,1,6.84.28h0a1.3,1.3,0,0,1,.92.38l2,2a.59.59,0,0,0,.4.16h0a.55.55,0,0,0,.39-.16l2-2a1.32,1.32,0,0,1,1.86,0l2,2a.59.59,0,0,0,.4.16h0a.55.55,0,0,0,.39-.16l2-2a1.31,1.31,0,0,1,1.85,0l2.63,2.63Z"/></g><g class="cls-3"><path class="cls-2" d="M23,7.82,20.37,5.19a.56.56,0,0,0-.79,0l-2,2a1.3,1.3,0,0,1-.92.38h0a1.34,1.34,0,0,1-.93-.38l-2-2a.57.57,0,0,0-.8,0l-2,2a1.3,1.3,0,0,1-.92.38h0a1.29,1.29,0,0,1-.92-.39l-2-2A.57.57,0,0,0,6.84,5h0a.57.57,0,0,0-.39.16l-2,2a1.32,1.32,0,0,1-1.86,0L0,4.53.53,4,3.15,6.63a.59.59,0,0,0,.8,0l2-2a1.32,1.32,0,0,1,.93-.38h0a1.3,1.3,0,0,1,.92.38l2,2a.59.59,0,0,0,.4.16h0a.55.55,0,0,0,.39-.16l2-2a1.32,1.32,0,0,1,1.86,0l2,2a.59.59,0,0,0,.4.16h0a.55.55,0,0,0,.39-.16l2-2a1.31,1.31,0,0,1,1.85,0l2.63,2.63Z"/></g></g></g></svg>