<svg id="Слой_1" data-name="Слой 1" xmlns="http://www.w3.org/2000/svg" viewBox="0 0 50 50"><defs><style>.cls-1{fill:#2182ee;fill-opacity:0;}.cls-2{fill:#11a2f6;}</style></defs><title>wi-fi</title><path class="cls-1" d="M0,0H50V50H0Z"/><path class="cls-2" d="M45.75,27.66a.79.79,0,0,1-.59.25.81.81,0,0,1-.59-.25,30.38,30.38,0,0,0-43.14,0,.85.85,0,0,1-1.18,0,.85.85,0,0,1,0-1.2,32.06,32.06,0,0,1,45.5,0A.84.84,0,0,1,45.75,27.66Zm-4.92,3.77a.86.86,0,0,1,0,1.19.84.84,0,0,1-1.19,0,23.44,23.44,0,0,0-33.28,0,.84.84,0,0,1-1.19-1.19A25.12,25.12,0,0,1,40.83,31.43ZM23,31a18,18,0,0,1,12.9,5.38.85.85,0,0,1-.59,1.44.85.85,0,0,1-.59-.25,16.51,16.51,0,0,0-23.44,0,.83.83,0,0,1-1.18,0,.84.84,0,0,1,0-1.19A18,18,0,0,1,23,31ZM23,39a5.53,5.53,0,1,1-5.49,5.53A5.51,5.51,0,0,1,23,39Zm0,9.36a3.84,3.84,0,1,0-3.81-3.84A3.83,3.83,0,0,0,23,48.31Z"/></svg>